<svg width="1920" height="1234" viewBox="0 0 1920 1234" fill="none" xmlns="http://www.w3.org/2000/svg">
<path d="M214 1043H0L-1 1191.12C21 1202.12 131 1230.12 291 1218.12C451 1206.12 732 1186.12 936 1180.12C1140 1174.12 1538 1213.12 1677 1227.12C1788.2 1238.32 1885.33 1231.79 1920 1227.12V1043H1697H1023H214Z" fill="white"/>
<rect y="127" width="1920" height="994" fill="#FFF6EE"/>
<rect y="127" width="1920" height="994" fill="url(#paint0_linear_77_42)"/>
<path d="M214 32.1202C79.6 17.7202 15.3333 51.4535 0 70.1202L-1 159C21 170 291 159 291 159H936H1306.5H1677C1677 159 1885.33 163.667 1920 159V66.1202C1892 16.1202 1817 11.1202 1697 1.1202C1577 -8.8798 1167 51.1202 1023 60.1202C879 69.1202 382 50.1202 214 32.1202Z" fill="#FFF6EE"/>
<g opacity="0.3" clip-path="url(#clip0_77_42)">
<path d="M351.47 1141.12L350.65 1127.43L338.91 1120.34C338.615 1120.16 338.377 1119.9 338.222 1119.58C338.066 1119.27 338 1118.93 338.03 1118.58C338.06 1118.24 338.185 1117.9 338.392 1117.63C338.598 1117.35 338.878 1117.13 339.2 1117L352 1112L355.12 1098.64C355.202 1098.3 355.376 1097.99 355.625 1097.74C355.874 1097.49 356.186 1097.32 356.527 1097.24C356.869 1097.16 357.226 1097.18 357.558 1097.29C357.891 1097.4 358.186 1097.6 358.41 1097.87L367.12 1108.47L380.78 1107.3C381.131 1107.27 381.483 1107.34 381.797 1107.49C382.112 1107.65 382.375 1107.9 382.557 1108.2C382.74 1108.5 382.834 1108.85 382.829 1109.2C382.824 1109.55 382.721 1109.89 382.53 1110.19L375.1 1121.72L380.44 1134.35C380.576 1134.67 380.619 1135.03 380.563 1135.38C380.508 1135.73 380.356 1136.05 380.125 1136.32C379.894 1136.59 379.593 1136.78 379.257 1136.89C378.92 1136.99 378.561 1137 378.22 1136.91L365 1133.46L354.63 1142.46C354.364 1142.71 354.033 1142.87 353.675 1142.93C353.318 1143 352.95 1142.96 352.616 1142.81C352.282 1142.67 351.996 1142.44 351.792 1142.14C351.589 1141.84 351.477 1141.48 351.47 1141.12Z" fill="#FF7556"/>
<path d="M445.41 1039.86C443.797 1037.66 442.874 1035.02 442.759 1032.29C442.643 1029.56 443.339 1026.86 444.76 1024.53C446.18 1022.19 448.261 1020.33 450.738 1019.18C453.216 1018.03 455.979 1017.64 458.679 1018.06C461.378 1018.48 463.892 1019.69 465.903 1021.54C467.914 1023.39 469.332 1025.79 469.976 1028.45C470.621 1031.1 470.464 1033.89 469.525 1036.45C468.585 1039.02 466.906 1041.25 464.7 1042.86C461.744 1045.02 458.051 1045.92 454.434 1045.35C450.817 1044.79 447.571 1042.81 445.41 1039.86Z" fill="#FFCD7B"/>
<path d="M486 1060.47C483.18 1057.47 480.48 1054.15 477.27 1051.6C474.51 1049.41 470.66 1053.02 472.78 1055.9C475.37 1059.43 478.87 1062.46 481.92 1065.6C483.15 1066.87 485.52 1066.34 486.52 1065.08C487.75 1063.54 487.23 1061.76 486 1060.47Z" fill="#FFCD7B"/>
<path d="M496.92 1033.42C491.61 1033.56 486.46 1032.84 481.19 1032.42C477.07 1032.06 476.33 1037.58 480.19 1038.66C485.75 1040.19 491.85 1040.29 497.58 1040.14C498.033 1040.11 498.476 1040 498.883 1039.8C499.289 1039.6 499.651 1039.31 499.946 1038.97C500.24 1038.62 500.462 1038.22 500.598 1037.79C500.734 1037.36 500.78 1036.9 500.735 1036.45C500.69 1036 500.554 1035.56 500.335 1035.16C500.116 1034.77 499.819 1034.42 499.461 1034.14C499.104 1033.86 498.693 1033.65 498.255 1033.54C497.816 1033.42 497.359 1033.39 496.91 1033.46L496.92 1033.42Z" fill="#FFCD7B"/>
<path d="M476.46 1017.07C476.24 1017.63 476.239 1018.25 476.458 1018.8C476.677 1019.36 477.1 1019.81 477.64 1020.07C480.44 1021.63 483.69 1019.43 486.01 1017.87C488.423 1016.21 490.579 1014.21 492.41 1011.93C495.12 1008.59 489.9 1004.41 487.18 1007.76C481.86 1014.33 477.72 1013.43 476.46 1017.07Z" fill="#FFCD7B"/>
<path d="M458.48 996.66C458.2 1003.77 456.48 1007.2 458.62 1009.66C458.874 1009.99 459.198 1010.26 459.569 1010.44C459.94 1010.63 460.348 1010.73 460.763 1010.74C461.179 1010.75 461.591 1010.67 461.969 1010.49C462.348 1010.32 462.683 1010.07 462.95 1009.75C464.52 1008.19 464.3 1005.63 464.54 1003.58C464.78 1001.53 464.99 999.66 465.06 997.68C465.169 996.813 464.943 995.937 464.429 995.231C463.914 994.524 463.149 994.041 462.29 993.88C460.67 993.62 458.55 994.88 458.48 996.65V996.66Z" fill="#FFCD7B"/>
<path d="M444.67 1004.1C441.67 1001.77 440.76 1000.82 438.47 1000.3C436.47 999.85 434.38 1002.25 435.33 1004.15C436.44 1006.37 437.33 1006.88 440.5 1009.33C440.843 1009.6 441.237 1009.81 441.659 1009.93C442.081 1010.05 442.523 1010.09 442.96 1010.04C443.396 1009.99 443.819 1009.85 444.203 1009.64C444.587 1009.43 444.926 1009.14 445.2 1008.8C445.474 1008.46 445.677 1008.06 445.799 1007.64C445.92 1007.22 445.958 1006.78 445.908 1006.34C445.859 1005.9 445.725 1005.48 445.512 1005.1C445.3 1004.71 445.013 1004.37 444.67 1004.1Z" fill="#FFCD7B"/>
<path d="M434.92 1020.39C427.67 1019.73 426.02 1019.31 424.22 1020.72C423.16 1021.55 422.57 1023.43 423.61 1024.54C425.55 1026.61 427.32 1026.4 433.9 1026.86C434.755 1026.97 435.621 1026.75 436.318 1026.25C437.014 1025.74 437.488 1024.98 437.64 1024.13C437.77 1023.27 437.557 1022.4 437.048 1021.7C436.539 1021 435.774 1020.53 434.92 1020.39Z" fill="#FFCD7B"/>
<path d="M425.91 1049.84C424.62 1052.08 427.49 1054.93 429.76 1053.84C432.03 1052.75 432.5 1052.04 441.13 1044.16C441.827 1043.62 442.292 1042.84 442.43 1041.97C442.567 1041.1 442.367 1040.22 441.87 1039.49C440.87 1038.15 438.54 1037.49 437.2 1038.75C428.22 1047 427.2 1047.59 425.91 1049.84Z" fill="#FFCD7B"/>
<path d="M451.17 1056.22C449.06 1064.73 447.71 1064.31 447.58 1068.79C447.52 1070.79 450.58 1072.15 452.04 1070.79C453.95 1069.04 454.3 1068.32 455.71 1064.33C456.531 1062.01 457.236 1059.66 457.82 1057.27C457.953 1056.39 457.734 1055.49 457.21 1054.77C456.686 1054.04 455.9 1053.56 455.02 1053.41C454.139 1053.29 453.245 1053.51 452.527 1054.04C451.809 1054.56 451.322 1055.34 451.17 1056.22Z" fill="#FFCD7B"/>
<path d="M548.81 1087.94C541.89 1078.94 527.3 1080.94 520.42 1088.75C512.81 1097.42 512.55 1110.99 519.33 1120.2C526.67 1130.2 538.79 1131.91 547.49 1124.52C555.96 1117.32 554.03 1105.34 544.74 1100.52C538.09 1097.08 531.59 1099.79 530.66 1103.52C529.93 1106.41 532.77 1109.04 535.44 1107.34C535.939 1106.98 536.326 1106.49 536.554 1105.92C536.783 1105.35 536.844 1104.73 536.73 1104.13C539.41 1102.98 544.73 1104.66 547.23 1109.67C550.45 1116.07 544.62 1122.41 538.6 1123.93C530.93 1125.86 524.04 1120.45 520.92 1113.78C517.64 1106.78 518.66 1097.67 523.79 1091.78C526.616 1088.58 530.583 1086.62 534.839 1086.32C539.095 1086.02 543.3 1087.4 546.55 1090.16C546.852 1090.42 547.241 1090.55 547.638 1090.54C548.036 1090.53 548.414 1090.36 548.697 1090.09C548.981 1089.81 549.15 1089.43 549.171 1089.03C549.192 1088.64 549.063 1088.25 548.81 1087.94Z" fill="#70B2F5"/>
<path d="M397.68 974L370.67 974.01L387.6 1006.03L397.68 974Z" fill="#6EDACA"/>
</g>
<g opacity="0.3" clip-path="url(#clip1_77_42)">
<path d="M1605.77 1067.39L1604.41 1056.05L1614.32 1049.94L1611.89 1037.32L1624.46 1034.07L1622.34 1019.69L1633.55 1015.27L1633.77 1001.1L1628.41 1001L1628.24 1011.59L1616.41 1016.26L1618.45 1030.08L1605.67 1033.39L1608.35 1047.31L1598.67 1053.27L1599.94 1063.79L1592.76 1066.38L1594.59 1071.42L1605.77 1067.39Z" fill="#00C0A5"/>
<path d="M1377 1106.36L1390.91 1106.99L1399.33 1095.89C1399.55 1095.6 1399.84 1095.38 1400.17 1095.26C1400.5 1095.13 1400.87 1095.1 1401.22 1095.16C1401.57 1095.23 1401.89 1095.4 1402.16 1095.64C1402.42 1095.88 1402.61 1096.19 1402.7 1096.54L1406.4 1110L1419.56 1114.57C1419.9 1114.68 1420.21 1114.89 1420.44 1115.17C1420.66 1115.45 1420.81 1115.79 1420.86 1116.15C1420.9 1116.51 1420.85 1116.87 1420.69 1117.2C1420.54 1117.52 1420.3 1117.8 1420 1118L1408.37 1125.67L1408.08 1139.6C1408.06 1139.95 1407.95 1140.28 1407.75 1140.57C1407.55 1140.86 1407.28 1141.09 1406.96 1141.23C1406.65 1141.38 1406.3 1141.43 1405.95 1141.39C1405.6 1141.35 1405.28 1141.21 1405 1141L1394.12 1132.31L1380.79 1136.31C1380.45 1136.42 1380.08 1136.42 1379.74 1136.33C1379.39 1136.24 1379.08 1136.05 1378.84 1135.79C1378.59 1135.53 1378.42 1135.21 1378.35 1134.86C1378.28 1134.51 1378.31 1134.14 1378.44 1133.81L1383.35 1120.81L1375.35 1109.37C1375.14 1109.08 1375.02 1108.73 1375 1108.38C1374.98 1108.02 1375.06 1107.66 1375.24 1107.35C1375.41 1107.04 1375.66 1106.78 1375.98 1106.6C1376.29 1106.43 1376.64 1106.34 1377 1106.36Z" fill="#FFCD7B"/>
<path d="M1508.11 1040.51C1510.08 1039.94 1512.16 1039.81 1514.18 1040.14C1516.21 1040.47 1518.14 1041.24 1519.83 1042.41C1521.03 1043.2 1522.06 1044.22 1522.85 1045.42C1523.65 1046.62 1524.2 1047.96 1524.46 1049.37C1524.73 1050.78 1524.71 1052.23 1524.4 1053.64C1524.1 1055.04 1523.51 1056.37 1522.68 1057.54C1518.87 1063.23 1509.38 1066.62 1492.51 1063.8C1483.51 1049.28 1483 1039.21 1486.81 1033.52C1487.58 1032.31 1488.59 1031.26 1489.77 1030.44C1490.95 1029.63 1492.29 1029.06 1493.69 1028.76C1495.1 1028.47 1496.55 1028.47 1497.96 1028.75C1499.37 1029.02 1500.71 1029.58 1501.9 1030.39C1503.62 1031.51 1505.07 1033 1506.14 1034.75C1507.22 1036.5 1507.89 1038.47 1508.11 1040.51Z" fill="#FF8D7F"/>
<path d="M1462.72 1013.36C1466.69 1017.09 1470.86 1020.59 1475.22 1023.85C1476.54 1024.85 1478.53 1026.92 1480.29 1026.47C1480.72 1026.4 1481.11 1026.16 1481.38 1025.81C1481.64 1025.46 1481.77 1025.03 1481.72 1024.59C1481.57 1022.77 1479.26 1021.72 1477.94 1020.73C1473.94 1017.73 1469.46 1014.1 1465.19 1010.2C1464.77 1009.87 1464.24 1009.72 1463.71 1009.79C1463.18 1009.85 1462.7 1010.13 1462.37 1010.54C1462.05 1010.96 1461.9 1011.5 1461.96 1012.02C1462.03 1012.55 1462.3 1013.03 1462.72 1013.36Z" fill="#FF8D7F"/>
<path d="M1522.46 1074.16C1524.37 1075.64 1526.31 1077.08 1528.24 1078.53C1530.17 1079.98 1532.04 1081.87 1534.24 1082.53C1534.59 1082.67 1534.97 1082.69 1535.33 1082.59C1535.7 1082.49 1536.01 1082.27 1536.24 1081.98C1536.48 1081.68 1536.6 1081.32 1536.61 1080.95C1536.62 1080.57 1536.51 1080.21 1536.29 1079.9C1535 1077.9 1532.61 1076.66 1530.75 1075.28C1528.89 1073.9 1526.88 1072.39 1524.92 1070.98C1522.96 1069.57 1520.39 1072.56 1522.44 1074.14L1522.46 1074.16Z" fill="#FF8D7F"/>
<path d="M1461.58 1052C1467.06 1049.75 1470.95 1050.71 1474.37 1050.84C1474.76 1050.89 1475.15 1050.79 1475.47 1050.58C1475.79 1050.36 1476.02 1050.04 1476.13 1049.66C1476.23 1049.29 1476.2 1048.89 1476.03 1048.54C1475.86 1048.19 1475.58 1047.91 1475.22 1047.75C1470.7 1045.35 1464.54 1046.4 1460.04 1048.3C1457.67 1049.3 1459.19 1052.98 1461.58 1052Z" fill="#FF8D7F"/>
<path d="M1476.18 1078.92C1477.58 1076.87 1479.39 1075.14 1481.5 1073.84C1482.81 1073.04 1487.5 1071.6 1485.67 1069.3C1483.84 1067 1480.17 1069.78 1478.55 1070.88C1476.37 1072.37 1474.48 1074.25 1473 1076.44C1471.55 1078.58 1474.7 1081.06 1476.18 1078.92Z" fill="#FF8D7F"/>
<path d="M1501.68 1079.08C1502.17 1080.66 1502.68 1082.25 1503.14 1083.84C1503.6 1085.43 1503.8 1087.32 1505.43 1088.09C1505.85 1088.26 1506.33 1088.26 1506.75 1088.09C1507.18 1087.92 1507.52 1087.6 1507.71 1087.18C1508.52 1085.75 1507.39 1083.7 1506.94 1082.25C1506.49 1080.8 1505.94 1079.09 1505.45 1077.51C1505.24 1077.01 1504.84 1076.62 1504.34 1076.41C1503.84 1076.21 1503.28 1076.21 1502.78 1076.41C1502.29 1076.63 1501.9 1077.03 1501.69 1077.52C1501.49 1078.02 1501.48 1078.58 1501.68 1079.08Z" fill="#FF8D7F"/>
<path d="M1503.74 1018.7C1507.06 1005.76 1507.17 1005.77 1507 1004.34C1506.95 1004 1506.79 1003.69 1506.57 1003.43C1506.34 1003.18 1506.04 1003 1505.71 1002.91C1505.38 1002.82 1505.03 1002.82 1504.7 1002.93C1504.38 1003.03 1504.09 1003.23 1503.87 1003.49C1502.95 1004.7 1503.12 1004.49 1499.68 1018.15C1499.61 1018.69 1499.76 1019.24 1500.09 1019.67C1500.42 1020.1 1500.91 1020.39 1501.45 1020.47C1501.99 1020.53 1502.54 1020.38 1502.97 1020.05C1503.41 1019.72 1503.7 1019.24 1503.78 1018.7H1503.74Z" fill="#FF8D7F"/>
<path d="M1521.42 1031.83C1523.29 1030.69 1525.03 1029.35 1526.61 1027.83C1528.08 1026.41 1530.53 1024.44 1529.88 1022.18C1529.78 1021.92 1529.61 1021.7 1529.39 1021.53C1529.17 1021.37 1528.91 1021.26 1528.64 1021.23C1526.57 1021.13 1525.2 1023.54 1523.83 1024.84C1522.33 1026.25 1520.72 1027.52 1519 1028.65C1518.78 1028.8 1518.59 1029 1518.45 1029.23C1518.3 1029.46 1518.21 1029.71 1518.16 1029.98C1518.12 1030.25 1518.13 1030.52 1518.2 1030.78C1518.27 1031.04 1518.38 1031.29 1518.55 1031.5C1518.71 1031.72 1518.92 1031.9 1519.15 1032.03C1519.39 1032.17 1519.65 1032.25 1519.91 1032.28C1520.18 1032.31 1520.45 1032.29 1520.71 1032.21C1520.97 1032.13 1521.21 1032 1521.42 1031.83Z" fill="#FF8D7F"/>
<path d="M1545.05 1052.14C1545.41 1051.85 1545.64 1051.44 1545.7 1050.99C1545.77 1050.53 1545.65 1050.07 1545.38 1049.7C1544.44 1048.17 1541.73 1048.15 1540.12 1047.97C1538.24 1047.77 1536.35 1047.73 1534.47 1047.83C1534.21 1047.86 1533.95 1047.95 1533.72 1048.08C1533.49 1048.21 1533.29 1048.39 1533.13 1048.6C1532.97 1048.81 1532.85 1049.05 1532.78 1049.31C1532.72 1049.57 1532.7 1049.84 1532.74 1050.1C1532.83 1050.62 1533.11 1051.09 1533.53 1051.41C1533.95 1051.73 1534.47 1051.88 1535 1051.83C1542.15 1051.73 1542.94 1053.46 1545.05 1052.14Z" fill="#FF8D7F"/>
<path d="M1541.08 1137.36C1530.76 1142.45 1529.76 1157.36 1536.19 1165.8C1543.3 1175.11 1556.77 1178.09 1567.29 1173.18C1578.69 1167.87 1582.86 1156.18 1577.29 1146C1571.83 1136.13 1559.5 1135.65 1552.86 1143.93C1548.1 1149.88 1549.5 1156.88 1553.01 1158.56C1555.74 1159.87 1558.93 1157.56 1557.77 1154.56C1557.52 1153.99 1557.11 1153.51 1556.58 1153.17C1556.06 1152.82 1555.45 1152.64 1554.83 1152.64C1554.22 1149.74 1556.96 1144.79 1562.45 1143.29C1569.45 1141.37 1574.62 1148.44 1574.92 1154.74C1575.31 1162.74 1568.54 1168.54 1561.27 1170.32C1553.64 1172.18 1544.78 1169.32 1539.95 1163.05C1537.33 1159.59 1536.18 1155.25 1536.73 1150.95C1537.28 1146.65 1539.5 1142.73 1542.9 1140.05C1543.26 1139.81 1543.5 1139.44 1543.58 1139.01C1543.67 1138.59 1543.58 1138.15 1543.34 1137.79C1543.09 1137.44 1542.72 1137.19 1542.3 1137.11C1541.87 1137.03 1541.44 1137.12 1541.08 1137.36Z" fill="#70B2F5"/>
</g>
<g opacity="0.3" clip-path="url(#clip2_77_42)">
<path d="M536.829 246.882L531.866 236.595L539.26 227.602L532.87 216.452L543.707 209.302L537.039 196.386L546.211 188.571L541.825 175.095L536.722 176.738L539.994 186.811L530.318 195.064L536.728 207.476L525.711 214.751L532.76 227.05L525.535 235.827L530.147 245.367L524.195 250.144L527.56 254.319L536.829 246.882Z" fill="#00C0A5"/>
<path d="M333.051 357.917L346.414 354.003L350.78 340.773C350.891 340.433 351.095 340.131 351.369 339.901C351.643 339.671 351.976 339.523 352.331 339.473C352.685 339.423 353.046 339.474 353.373 339.619C353.699 339.765 353.979 339.999 354.179 340.295L362.043 351.829L375.974 351.885C376.335 351.882 376.69 351.981 376.997 352.171C377.304 352.36 377.552 352.633 377.712 352.957C377.871 353.28 377.936 353.643 377.899 354.002C377.862 354.361 377.725 354.703 377.502 354.987L368.987 366.014L373.229 379.285C373.323 379.621 373.324 379.975 373.231 380.311C373.138 380.647 372.955 380.951 372.702 381.19C372.448 381.43 372.134 381.595 371.794 381.669C371.453 381.742 371.099 381.721 370.769 381.608L357.66 376.915L346.347 385.021C346.058 385.231 345.715 385.356 345.359 385.382C345.002 385.407 344.646 385.332 344.33 385.165C344.014 384.998 343.751 384.746 343.571 384.437C343.391 384.128 343.302 383.775 343.313 383.418L343.743 369.528L332.466 361.299C332.176 361.09 331.951 360.803 331.816 360.472C331.681 360.141 331.641 359.778 331.702 359.426C331.763 359.073 331.922 358.745 332.161 358.478C332.399 358.211 332.708 358.017 333.051 357.917Z" fill="#FFCD7B"/>
<path d="M435.73 253.117C437.41 251.936 439.332 251.144 441.356 250.798C443.38 250.451 445.455 250.559 447.433 251.114C448.823 251.473 450.128 252.108 451.269 252.981C452.409 253.854 453.362 254.948 454.072 256.197C454.781 257.446 455.231 258.825 455.397 260.252C455.562 261.679 455.439 263.125 455.034 264.503C453.274 271.121 445.396 277.404 428.523 280.206C415.302 269.388 411.554 260.028 413.314 253.41C413.65 252.013 414.263 250.697 415.116 249.541C415.97 248.385 417.047 247.412 418.283 246.679C419.52 245.947 420.891 245.47 422.315 245.277C423.739 245.085 425.187 245.179 426.574 245.557C428.565 246.06 430.419 246.999 432.002 248.306C433.586 249.614 434.859 251.257 435.73 253.117Z" fill="#FF8D7F"/>
<path d="M383.989 242.149C388.95 244.391 394.033 246.351 399.215 248.02C400.788 248.538 403.341 249.851 404.86 248.854C405.247 248.646 405.54 248.298 405.678 247.881C405.816 247.464 405.789 247.01 405.604 246.612C404.872 244.939 402.346 244.695 400.776 244.186C396.02 242.645 390.605 240.664 385.301 238.359C384.798 238.185 384.247 238.218 383.769 238.45C383.291 238.682 382.924 239.095 382.75 239.598C382.576 240.101 382.609 240.652 382.841 241.13C383.074 241.609 383.486 241.975 383.989 242.149Z" fill="#FF8D7F"/>
<path d="M460.214 280.296C462.501 281.077 464.803 281.81 467.099 282.556C469.395 283.302 471.776 284.484 474.072 284.395C474.446 284.411 474.815 284.305 475.125 284.094C475.434 283.883 475.667 283.578 475.789 283.224C475.911 282.869 475.916 282.485 475.802 282.128C475.688 281.771 475.463 281.461 475.158 281.242C473.289 279.769 470.627 279.371 468.42 278.668C466.213 277.966 463.822 277.189 461.51 276.491C459.199 275.792 457.737 279.454 460.189 280.284L460.214 280.296Z" fill="#FF8D7F"/>
<path d="M395.438 279.071C399.893 275.166 403.884 274.813 407.161 273.827C407.541 273.747 407.879 273.532 408.114 273.223C408.349 272.914 408.465 272.53 408.441 272.143C408.418 271.755 408.255 271.389 407.984 271.111C407.713 270.833 407.35 270.662 406.963 270.629C401.91 269.824 396.423 272.814 392.782 276.071C390.864 277.785 393.495 280.773 395.438 279.071Z" fill="#FF8D7F"/>
<path d="M417.977 299.804C418.638 297.415 419.792 295.19 421.363 293.273C422.343 292.092 426.313 289.209 423.836 287.627C421.359 286.044 418.789 289.864 417.613 291.43C416.03 293.545 414.86 295.94 414.165 298.489C413.487 300.983 417.271 302.308 417.977 299.804Z" fill="#FF8D7F"/>
<path d="M442.152 291.688C443.128 293.024 444.126 294.362 445.076 295.717C446.027 297.072 446.829 298.795 448.62 298.995C449.077 299.021 449.527 298.869 449.874 298.571C450.221 298.272 450.439 297.851 450.482 297.395C450.785 295.78 449.051 294.207 448.155 292.981C447.26 291.755 446.185 290.316 445.209 288.98C444.848 288.579 444.343 288.336 443.804 288.303C443.265 288.271 442.734 288.451 442.327 288.805C441.932 289.171 441.694 289.675 441.661 290.212C441.629 290.748 441.804 291.277 442.152 291.688Z" fill="#FF8D7F"/>
<path d="M424.525 233.901C423.47 220.584 423.577 220.558 422.953 219.26C422.792 218.958 422.547 218.709 422.248 218.542C421.949 218.376 421.608 218.299 421.267 218.321C420.925 218.344 420.597 218.464 420.322 218.668C420.047 218.872 419.837 219.15 419.716 219.471C419.238 220.914 419.331 220.66 420.506 234.697C420.619 235.231 420.936 235.699 421.389 236.001C421.842 236.304 422.396 236.418 422.932 236.318C423.465 236.202 423.933 235.885 424.237 235.432C424.541 234.979 424.657 234.426 424.562 233.888L424.525 233.901Z" fill="#FF8D7F"/>
<path d="M445.506 240.59C446.903 238.903 448.115 237.07 449.119 235.123C450.049 233.304 451.728 230.646 450.381 228.718C450.202 228.509 449.97 228.353 449.709 228.265C449.448 228.178 449.169 228.163 448.9 228.222C446.909 228.798 446.395 231.522 445.52 233.196C444.56 235.013 443.444 236.742 442.186 238.366C442.026 238.584 441.912 238.832 441.85 239.095C441.788 239.358 441.781 239.63 441.827 239.896C441.874 240.162 441.974 240.416 442.121 240.643C442.268 240.869 442.46 241.063 442.684 241.213C442.909 241.364 443.161 241.467 443.427 241.517C443.692 241.567 443.965 241.563 444.229 241.505C444.492 241.446 444.741 241.335 444.961 241.178C445.181 241.021 445.366 240.821 445.506 240.59Z" fill="#FF8D7F"/>
<path d="M474.445 252.142C474.692 251.755 474.78 251.288 474.69 250.838C474.601 250.388 474.342 249.99 473.966 249.727C472.581 248.584 470.011 249.444 468.429 249.795C466.59 250.218 464.788 250.786 463.039 251.495C462.8 251.612 462.587 251.775 462.412 251.975C462.238 252.175 462.104 252.408 462.021 252.66C461.937 252.912 461.904 253.178 461.924 253.443C461.944 253.708 462.017 253.967 462.138 254.203C462.389 254.668 462.808 255.021 463.309 255.189C463.81 255.357 464.357 255.327 464.837 255.107C471.569 252.694 472.877 254.075 474.445 252.142Z" fill="#FF8D7F"/>
<path d="M498.319 334.046C490.206 342.207 494.094 356.636 502.913 362.535C512.658 369.037 526.366 367.489 534.726 359.433C543.789 350.714 543.944 338.304 535.374 330.479C527.009 322.913 515.189 326.456 511.592 336.442C509.019 343.614 512.613 349.782 516.478 350.233C519.485 350.587 521.754 347.367 519.684 344.906C519.26 344.449 518.713 344.124 518.109 343.971C517.505 343.818 516.87 343.843 516.28 344.042C514.763 341.497 515.75 335.926 520.457 332.727C526.456 328.641 533.639 333.653 535.966 339.516C538.928 346.957 534.404 354.639 528.104 358.68C521.489 362.913 512.181 363.08 505.579 358.714C501.982 356.293 499.479 352.557 498.607 348.31C497.734 344.063 498.562 339.644 500.913 336C501.172 335.656 501.284 335.224 501.224 334.797C501.164 334.371 500.937 333.985 500.593 333.726C500.249 333.467 499.816 333.355 499.39 333.415C498.963 333.475 498.578 333.702 498.319 334.046Z" fill="#70B2F5"/>
</g>
<g opacity="0.3" clip-path="url(#clip3_77_42)">
<path d="M1530.67 286.768L1533.41 273.329L1546.03 267.959C1546.34 267.819 1546.62 267.594 1546.81 267.308C1547.01 267.023 1547.13 266.688 1547.15 266.341C1547.16 265.995 1547.09 265.649 1546.92 265.344C1546.76 265.039 1546.51 264.785 1546.21 264.611L1534.24 257.862L1533.03 244.196C1532.99 243.847 1532.87 243.514 1532.65 243.235C1532.44 242.955 1532.16 242.739 1531.83 242.612C1531.5 242.485 1531.15 242.451 1530.8 242.515C1530.46 242.578 1530.14 242.737 1529.88 242.972L1519.77 252.242L1506.41 249.164C1506.06 249.084 1505.7 249.101 1505.37 249.214C1505.04 249.327 1504.74 249.532 1504.52 249.804C1504.3 250.077 1504.15 250.407 1504.11 250.756C1504.06 251.105 1504.12 251.46 1504.27 251.78L1510 264.239L1502.94 275.994C1502.76 276.296 1502.67 276.643 1502.67 276.996C1502.68 277.348 1502.78 277.692 1502.98 277.988C1503.17 278.284 1503.44 278.521 1503.76 278.671C1504.07 278.822 1504.43 278.88 1504.78 278.84L1518.35 277.282L1527.35 287.65C1527.58 287.932 1527.89 288.142 1528.23 288.255C1528.58 288.367 1528.95 288.377 1529.3 288.284C1529.65 288.191 1529.97 287.998 1530.21 287.729C1530.45 287.46 1530.61 287.126 1530.67 286.768Z" fill="#FF7556"/>
<path d="M1451.89 173.311C1453.8 171.355 1455.08 168.877 1455.58 166.191C1456.08 163.504 1455.77 160.731 1454.69 158.221C1453.61 155.711 1451.82 153.577 1449.52 152.089C1447.23 150.602 1444.55 149.827 1441.82 149.863C1439.09 149.9 1436.43 150.745 1434.18 152.293C1431.93 153.841 1430.19 156.022 1429.18 158.56C1428.16 161.098 1427.93 163.879 1428.5 166.55C1429.07 169.222 1430.42 171.665 1432.37 173.57C1435 176.123 1438.53 177.53 1442.19 177.481C1445.85 177.432 1449.34 175.932 1451.89 173.311Z" fill="#FFCD7B"/>
<path d="M1408.81 188.012C1412.02 185.438 1415.16 182.531 1418.7 180.457C1421.74 178.677 1425.05 182.792 1422.54 185.345C1419.48 188.476 1415.59 190.984 1412.13 193.665C1410.73 194.749 1408.46 193.891 1407.65 192.503C1406.65 190.806 1407.41 189.117 1408.81 188.012Z" fill="#FFCD7B"/>
<path d="M1401.8 159.696C1407.04 160.581 1412.24 160.592 1417.51 160.917C1421.64 161.139 1421.6 166.708 1417.63 167.235C1411.91 167.969 1405.85 167.21 1400.2 166.257C1399.76 166.168 1399.34 165.99 1398.96 165.733C1398.59 165.477 1398.27 165.147 1398.02 164.765C1397.78 164.382 1397.62 163.954 1397.54 163.506C1397.47 163.058 1397.49 162.6 1397.6 162.16C1397.71 161.719 1397.9 161.305 1398.17 160.942C1398.45 160.58 1398.79 160.276 1399.18 160.05C1399.58 159.823 1400.01 159.679 1400.46 159.625C1400.91 159.571 1401.37 159.61 1401.8 159.737L1401.8 159.696Z" fill="#FFCD7B"/>
<path d="M1424.35 146.384C1424.49 146.966 1424.41 147.579 1424.11 148.1C1423.82 148.62 1423.34 149.009 1422.77 149.188C1419.77 150.339 1416.87 147.704 1414.79 145.834C1412.63 143.855 1410.78 141.571 1409.29 139.053C1407.07 135.365 1412.83 131.96 1415.05 135.659C1419.39 142.912 1423.62 142.603 1424.35 146.384Z" fill="#FFCD7B"/>
<path d="M1445.02 128.703C1444.3 135.782 1445.52 139.419 1443.06 141.554C1442.76 141.844 1442.4 142.064 1442.01 142.197C1441.62 142.33 1441.2 142.374 1440.79 142.324C1440.37 142.274 1439.98 142.132 1439.63 141.909C1439.28 141.686 1438.98 141.387 1438.76 141.035C1437.42 139.27 1438 136.766 1438.05 134.703C1438.1 132.639 1438.16 130.758 1438.37 128.788C1438.38 127.914 1438.73 127.079 1439.34 126.452C1439.94 125.825 1440.77 125.454 1441.64 125.415C1443.28 125.385 1445.21 126.931 1445.03 128.693L1445.02 128.703Z" fill="#FFCD7B"/>
<path d="M1457.65 138.01C1460.95 136.125 1461.98 135.312 1464.32 135.119C1466.37 134.954 1468.1 137.624 1466.89 139.372C1465.48 141.414 1464.53 141.794 1461.05 143.774C1460.67 143.997 1460.25 144.143 1459.81 144.204C1459.38 144.265 1458.94 144.24 1458.51 144.13C1458.09 144.02 1457.69 143.827 1457.34 143.562C1456.98 143.298 1456.69 142.967 1456.47 142.589C1456.24 142.21 1456.1 141.792 1456.04 141.357C1455.98 140.922 1456 140.479 1456.11 140.054C1456.22 139.629 1456.41 139.229 1456.68 138.879C1456.94 138.528 1457.27 138.233 1457.65 138.01Z" fill="#FFCD7B"/>
<path d="M1465.02 155.508C1472.29 155.874 1473.98 155.69 1475.56 157.339C1476.5 158.31 1476.82 160.254 1475.63 161.207C1473.42 162.983 1471.7 162.527 1465.12 162.058C1464.25 162.05 1463.43 161.71 1462.81 161.109C1462.19 160.508 1461.83 159.691 1461.8 158.829C1461.79 157.963 1462.12 157.129 1462.72 156.508C1463.33 155.886 1464.15 155.527 1465.02 155.508Z" fill="#FFCD7B"/>
<path d="M1469.8 185.932C1470.76 188.331 1467.52 190.75 1465.42 189.352C1463.33 187.953 1462.96 187.184 1455.53 178.17C1454.91 177.541 1454.56 176.7 1454.55 175.821C1454.53 174.942 1454.86 174.091 1455.45 173.442C1456.63 172.256 1459.03 171.93 1460.18 173.366C1467.91 182.796 1468.84 183.523 1469.8 185.932Z" fill="#FFCD7B"/>
<path d="M1443.89 188.699C1444.79 197.421 1446.18 197.195 1445.68 201.649C1445.46 203.637 1442.24 204.554 1440.98 203.002C1439.34 201.001 1439.09 200.239 1438.26 196.091C1437.77 193.682 1437.4 191.25 1437.16 188.804C1437.15 187.912 1437.5 187.053 1438.12 186.412C1438.74 185.77 1439.58 185.398 1440.48 185.376C1441.36 185.379 1442.22 185.727 1442.86 186.347C1443.49 186.967 1443.86 187.81 1443.89 188.699Z" fill="#FFCD7B"/>
<path d="M1342.76 206.383C1350.88 198.444 1365.04 202.475 1370.76 211.174C1377.07 220.828 1375.42 234.3 1367.42 242.465C1358.74 251.335 1346.5 251.324 1338.93 242.785C1331.56 234.466 1335.15 222.876 1345.02 219.41C1352.09 216.938 1358.15 220.535 1358.54 224.359C1358.86 227.323 1355.68 229.527 1353.27 227.469C1352.83 227.046 1352.52 226.505 1352.37 225.91C1352.22 225.315 1352.25 224.69 1352.45 224.11C1349.96 222.594 1344.45 223.51 1341.27 228.119C1337.19 234.003 1342.07 241.099 1347.81 243.45C1355.14 246.439 1362.72 242.051 1366.75 235.886C1370.98 229.416 1371.25 220.253 1367 213.701C1364.65 210.138 1360.99 207.64 1356.82 206.742C1352.65 205.844 1348.3 206.618 1344.69 208.898C1344.35 209.112 1343.95 209.191 1343.56 209.122C1343.17 209.053 1342.82 208.839 1342.57 208.523C1342.33 208.207 1342.22 207.812 1342.25 207.416C1342.29 207.02 1342.47 206.651 1342.76 206.383Z" fill="#70B2F5"/>
<path d="M1508.41 114.812L1535.15 118.618L1513.88 147.941L1508.41 114.812Z" fill="#6EDACA"/>
</g>
<defs>
<linearGradient id="paint0_linear_77_42" x1="919.521" y1="1121" x2="919.521" y2="184.456" gradientUnits="userSpaceOnUse">
<stop stop-color="white"/>
<stop offset="1" stop-color="white" stop-opacity="0"/>
</linearGradient>
<clipPath id="clip0_77_42">
<rect width="214.89" height="168.9" fill="white" transform="translate(338 974)"/>
</clipPath>
<clipPath id="clip1_77_42">
<rect width="258.77" height="174.52" fill="white" transform="translate(1375 1001)"/>
</clipPath>
<clipPath id="clip2_77_42">
<rect width="258.77" height="174.52" fill="white" transform="translate(297 258.897) rotate(-18.9179)"/>
</clipPath>
<clipPath id="clip3_77_42">
<rect width="214.89" height="168.9" fill="white" transform="matrix(-0.990076 -0.140533 -0.140533 0.990076 1567.49 123.199)"/>
</clipPath>
</defs>
</svg>
