<svg width="617" height="261" viewBox="0 0 617 261" fill="none" xmlns="http://www.w3.org/2000/svg">
<g filter="url(#filter0_f_77_43)">
<path d="M145.325 139.03C105.862 141.106 85 153.307 85 166.382C85 182.304 87.8739 194.55 114.032 199.635C134.255 203.549 269.036 197.633 332.049 197.797C416.882 198.019 474.014 200.435 491.284 200.969C540.646 202.526 551.53 144.797 487.825 140.379C429.309 136.303 203.575 135.991 145.325 139.03Z" fill="#CF9898" fill-opacity="0.39"/>
</g>
<g filter="url(#filter1_f_77_43)">
<path d="M116.122 152.412C69.5961 152.834 45 155.312 45 157.968C45 161.202 48.3882 163.69 79.2275 164.723C103.071 165.518 261.973 164.316 336.263 164.349C436.279 164.394 503.636 164.885 523.997 164.994C582.193 165.31 595.025 153.584 519.919 152.686C450.93 151.858 184.796 151.795 116.122 152.412Z" fill="#CF9898" fill-opacity="0.53"/>
</g>
<path d="M560.884 157.019L560.882 157.019C557.652 156.84 553.408 156.574 548.194 156.249C514.957 154.172 442.269 149.631 341.012 149.155C307.841 149.001 260.281 151.035 212.607 153.074C197.715 153.71 182.811 154.348 168.331 154.919C137.897 156.12 109.333 157.029 86.6386 157.033C75.2906 157.035 65.4312 156.811 57.5505 156.286C49.6224 155.758 43.846 154.933 40.5671 153.794C22.9238 147.637 13.2379 137.216 7.89388 123.535C2.50245 109.732 1.5 92.5414 1.5 72.8102C1.5 41.4705 29.3824 11.626 83.4076 6.52474C123.523 2.76726 221.447 1.07582 319.5 1.59019C417.565 2.10461 515.559 4.82464 555.838 9.8627L555.839 9.8628C577.372 12.5437 592.539 23.285 602.199 37.825C611.885 52.4038 616.07 70.8664 615.438 88.9448C614.806 107.028 609.359 124.582 599.956 137.333C590.576 150.053 577.313 157.949 560.884 157.019Z" fill="white"/>
<path d="M560.884 157.019L560.882 157.019C557.652 156.84 553.408 156.574 548.194 156.249C514.957 154.172 442.269 149.631 341.012 149.155C307.841 149.001 260.281 151.035 212.607 153.074C197.715 153.71 182.811 154.348 168.331 154.919C137.897 156.12 109.333 157.029 86.6386 157.033C75.2906 157.035 65.4312 156.811 57.5505 156.286C49.6224 155.758 43.846 154.933 40.5671 153.794C22.9238 147.637 13.2379 137.216 7.89388 123.535C2.50245 109.732 1.5 92.5414 1.5 72.8102C1.5 41.4705 29.3824 11.626 83.4076 6.52474C123.523 2.76726 221.447 1.07582 319.5 1.59019C417.565 2.10461 515.559 4.82464 555.838 9.8627L555.839 9.8628C577.372 12.5437 592.539 23.285 602.199 37.825C611.885 52.4038 616.07 70.8664 615.438 88.9448C614.806 107.028 609.359 124.582 599.956 137.333C590.576 150.053 577.313 157.949 560.884 157.019Z" fill="url(#paint0_linear_77_43)"/>
<path d="M560.884 157.019L560.882 157.019C557.652 156.84 553.408 156.574 548.194 156.249C514.957 154.172 442.269 149.631 341.012 149.155C307.841 149.001 260.281 151.035 212.607 153.074C197.715 153.71 182.811 154.348 168.331 154.919C137.897 156.12 109.333 157.029 86.6386 157.033C75.2906 157.035 65.4312 156.811 57.5505 156.286C49.6224 155.758 43.846 154.933 40.5671 153.794C22.9238 147.637 13.2379 137.216 7.89388 123.535C2.50245 109.732 1.5 92.5414 1.5 72.8102C1.5 41.4705 29.3824 11.626 83.4076 6.52474C123.523 2.76726 221.447 1.07582 319.5 1.59019C417.565 2.10461 515.559 4.82464 555.838 9.8627L555.839 9.8628C577.372 12.5437 592.539 23.285 602.199 37.825C611.885 52.4038 616.07 70.8664 615.438 88.9448C614.806 107.028 609.359 124.582 599.956 137.333C590.576 150.053 577.313 157.949 560.884 157.019Z" stroke="url(#paint1_linear_77_43)" stroke-width="3"/>
<defs>
<filter id="filter0_f_77_43" x="25" y="77" width="567" height="184" filterUnits="userSpaceOnUse" color-interpolation-filters="sRGB">
<feFlood flood-opacity="0" result="BackgroundImageFix"/>
<feBlend mode="normal" in="SourceGraphic" in2="BackgroundImageFix" result="shape"/>
<feGaussianBlur stdDeviation="30" result="effect1_foregroundBlur_77_43"/>
</filter>
<filter id="filter1_f_77_43" x="25" y="132" width="567" height="53" filterUnits="userSpaceOnUse" color-interpolation-filters="sRGB">
<feFlood flood-opacity="0" result="BackgroundImageFix"/>
<feBlend mode="normal" in="SourceGraphic" in2="BackgroundImageFix" result="shape"/>
<feGaussianBlur stdDeviation="10" result="effect1_foregroundBlur_77_43"/>
</filter>
<linearGradient id="paint0_linear_77_43" x1="308" y1="146" x2="305" y2="3.99999" gradientUnits="userSpaceOnUse">
<stop stop-color="#FFF6EF"/>
<stop offset="1" stop-color="white" stop-opacity="0"/>
</linearGradient>
<linearGradient id="paint1_linear_77_43" x1="309" y1="153" x2="309" y2="39" gradientUnits="userSpaceOnUse">
<stop stop-color="#EDD3D0" stop-opacity="0.71"/>
<stop offset="1" stop-color="white" stop-opacity="0"/>
</linearGradient>
</defs>
</svg>
