<svg width="617" height="261" viewBox="0 0 617 261" fill="none" xmlns="http://www.w3.org/2000/svg">
<g filter="url(#filter0_f_603_476)">
<path d="M145.325 139.03C105.862 141.106 85 153.307 85 166.382C85 182.304 87.8739 194.55 114.032 199.635C134.255 203.549 269.036 197.633 332.049 197.797C416.882 198.019 474.014 200.435 491.284 200.969C540.646 202.526 551.53 144.797 487.825 140.379C429.309 136.303 203.575 135.991 145.325 139.03Z" fill="#CF9898" fill-opacity="0.39"/>
</g>
<g filter="url(#filter1_f_603_476)">
<path d="M116.122 152.412C69.5961 152.834 45 155.312 45 157.968C45 161.202 48.3882 163.69 79.2275 164.723C103.071 165.518 261.973 164.316 336.263 164.349C436.279 164.394 503.636 164.885 523.997 164.994C582.193 165.31 595.025 153.584 519.919 152.686C450.93 151.858 184.796 151.795 116.122 152.412Z" fill="#CF9898" fill-opacity="0.53"/>
</g>
<path d="M560.884 157.019L560.882 157.019C557.652 156.84 553.408 156.574 548.194 156.249C514.957 154.172 442.269 149.631 341.012 149.155C307.841 149.001 260.281 151.035 212.607 153.074C197.715 153.71 182.811 154.348 168.331 154.919C137.897 156.12 109.333 157.029 86.6386 157.033C75.2906 157.035 65.4312 156.811 57.5505 156.286C49.6224 155.758 43.846 154.933 40.5671 153.794C22.9238 147.637 13.2379 137.216 7.89388 123.535C2.50245 109.732 1.5 92.5414 1.5 72.8102C1.5 41.4705 29.3824 11.626 83.4076 6.52474C123.523 2.76726 221.447 1.07582 319.5 1.59019C417.565 2.10461 515.559 4.82464 555.838 9.8627L555.839 9.8628C577.372 12.5437 592.539 23.285 602.199 37.825C611.885 52.4038 616.07 70.8664 615.438 88.9448C614.806 107.028 609.359 124.582 599.956 137.333C590.576 150.053 577.313 157.949 560.884 157.019Z" fill="white"/>
<path d="M560.884 157.019L560.882 157.019C557.652 156.84 553.408 156.574 548.194 156.249C514.957 154.172 442.269 149.631 341.012 149.155C307.841 149.001 260.281 151.035 212.607 153.074C197.715 153.71 182.811 154.348 168.331 154.919C137.897 156.12 109.333 157.029 86.6386 157.033C75.2906 157.035 65.4312 156.811 57.5505 156.286C49.6224 155.758 43.846 154.933 40.5671 153.794C22.9238 147.637 13.2379 137.216 7.89388 123.535C2.50245 109.732 1.5 92.5414 1.5 72.8102C1.5 41.4705 29.3824 11.626 83.4076 6.52474C123.523 2.76726 221.447 1.07582 319.5 1.59019C417.565 2.10461 515.559 4.82464 555.838 9.8627L555.839 9.8628C577.372 12.5437 592.539 23.285 602.199 37.825C611.885 52.4038 616.07 70.8664 615.438 88.9448C614.806 107.028 609.359 124.582 599.956 137.333C590.576 150.053 577.313 157.949 560.884 157.019Z" fill="url(#paint0_linear_603_476)"/>
<path d="M560.884 157.019L560.882 157.019C557.652 156.84 553.408 156.574 548.194 156.249C514.957 154.172 442.269 149.631 341.012 149.155C307.841 149.001 260.281 151.035 212.607 153.074C197.715 153.71 182.811 154.348 168.331 154.919C137.897 156.12 109.333 157.029 86.6386 157.033C75.2906 157.035 65.4312 156.811 57.5505 156.286C49.6224 155.758 43.846 154.933 40.5671 153.794C22.9238 147.637 13.2379 137.216 7.89388 123.535C2.50245 109.732 1.5 92.5414 1.5 72.8102C1.5 41.4705 29.3824 11.626 83.4076 6.52474C123.523 2.76726 221.447 1.07582 319.5 1.59019C417.565 2.10461 515.559 4.82464 555.838 9.8627L555.839 9.8628C577.372 12.5437 592.539 23.285 602.199 37.825C611.885 52.4038 616.07 70.8664 615.438 88.9448C614.806 107.028 609.359 124.582 599.956 137.333C590.576 150.053 577.313 157.949 560.884 157.019Z" stroke="url(#paint1_linear_603_476)" stroke-width="3"/>
<path d="M134.998 62C134.293 62 133.679 61.7393 133.158 61.218C132.637 60.6967 132.376 60.0833 132.376 59.378V31.042C132.376 30.3367 132.637 29.7233 133.158 29.202C133.679 28.6807 134.293 28.42 134.998 28.42H137.62C138.325 28.42 138.923 28.6807 139.414 29.202C139.935 29.7233 140.196 30.3367 140.196 31.042V41.162C140.196 41.438 140.334 41.576 140.61 41.576H150.086C150.362 41.576 150.5 41.438 150.5 41.162V31.042C150.5 30.3367 150.745 29.7233 151.236 29.202C151.757 28.6807 152.371 28.42 153.076 28.42H155.698C156.403 28.42 157.017 28.6807 157.538 29.202C158.059 29.7233 158.32 30.3367 158.32 31.042V59.378C158.32 60.0833 158.059 60.6967 157.538 61.218C157.017 61.7393 156.403 62 155.698 62H153.076C152.371 62 151.757 61.7393 151.236 61.218C150.745 60.6967 150.5 60.0833 150.5 59.378V47.878C150.5 47.6327 150.362 47.51 150.086 47.51H140.61C140.334 47.51 140.196 47.6327 140.196 47.878V59.378C140.196 60.0833 139.935 60.6967 139.414 61.218C138.923 61.7393 138.325 62 137.62 62H134.998ZM178.69 44.52C177.954 43.3853 176.819 42.818 175.286 42.818C173.752 42.818 172.602 43.3853 171.836 44.52C171.1 45.6547 170.732 47.4947 170.732 50.04C170.732 52.5853 171.1 54.4253 171.836 55.56C172.602 56.6947 173.752 57.262 175.286 57.262C176.819 57.262 177.954 56.6947 178.69 55.56C179.456 54.4253 179.84 52.5853 179.84 50.04C179.84 47.4947 179.456 45.6547 178.69 44.52ZM184.164 59.194C182.048 61.3713 179.088 62.46 175.286 62.46C171.483 62.46 168.524 61.3713 166.408 59.194C164.292 57.0167 163.234 53.9653 163.234 50.04C163.234 46.1147 164.292 43.0633 166.408 40.886C168.524 38.7087 171.483 37.62 175.286 37.62C179.088 37.62 182.048 38.7087 184.164 40.886C186.28 43.0633 187.338 46.1147 187.338 50.04C187.338 53.9653 186.28 57.0167 184.164 59.194ZM199.203 52.202V57.124C199.203 57.4307 199.341 57.584 199.617 57.584C199.831 57.6147 200.153 57.63 200.583 57.63C203.496 57.63 204.953 56.6027 204.953 54.548C204.953 52.708 203.511 51.788 200.629 51.788H199.617C199.341 51.788 199.203 51.926 199.203 52.202ZM199.203 42.956V46.958C199.203 47.2033 199.341 47.326 199.617 47.326H200.445C201.61 47.326 202.53 47.096 203.205 46.636C203.879 46.176 204.217 45.5473 204.217 44.75C204.217 43.2167 202.99 42.45 200.537 42.45C200.107 42.45 199.801 42.4653 199.617 42.496C199.341 42.496 199.203 42.6493 199.203 42.956ZM194.419 62.092C193.683 62.0307 193.054 61.724 192.533 61.172C192.042 60.62 191.797 59.976 191.797 59.24V40.84C191.797 40.104 192.042 39.46 192.533 38.908C193.054 38.356 193.683 38.0493 194.419 37.988C196.351 37.8347 198.175 37.758 199.893 37.758C207.375 37.758 211.117 39.7973 211.117 43.876C211.117 45.256 210.611 46.4367 209.599 47.418C208.587 48.3687 207.207 48.982 205.459 49.258V49.304C205.459 49.3347 205.474 49.35 205.505 49.35C207.529 49.5953 209.123 50.2547 210.289 51.328C211.454 52.3707 212.037 53.628 212.037 55.1C212.037 57.492 211.101 59.3013 209.231 60.528C207.391 61.724 204.401 62.322 200.261 62.322C198.451 62.322 196.504 62.2453 194.419 62.092ZM227.998 51.052C224.257 51.052 222.386 52.202 222.386 54.502C222.386 55.33 222.632 55.9893 223.122 56.48C223.613 56.94 224.272 57.17 225.1 57.17C226.572 57.17 227.768 56.71 228.688 55.79C229.608 54.8393 230.068 53.582 230.068 52.018V51.466C230.068 51.19 229.93 51.052 229.654 51.052H227.998ZM222.846 62.46C220.73 62.46 218.982 61.7853 217.602 60.436C216.253 59.056 215.578 57.2773 215.578 55.1C215.578 49.5187 219.718 46.728 227.998 46.728H229.654C229.93 46.728 230.068 46.6053 230.068 46.36V46.13C230.068 44.9647 229.762 44.1213 229.148 43.6C228.566 43.0787 227.569 42.818 226.158 42.818C224.288 42.818 222.049 43.1093 219.442 43.692C218.798 43.8147 218.216 43.6767 217.694 43.278C217.204 42.8793 216.958 42.358 216.958 41.714V41.622C216.958 40.8553 217.188 40.1653 217.648 39.552C218.139 38.908 218.752 38.5247 219.488 38.402C222.187 37.8807 224.518 37.62 226.48 37.62C230.498 37.62 233.334 38.3407 234.99 39.782C236.677 41.2233 237.52 43.6153 237.52 46.958V59.378C237.52 60.0833 237.26 60.6967 236.738 61.218C236.217 61.7393 235.604 62 234.898 62H233.196C232.46 62 231.832 61.7547 231.31 61.264C230.789 60.7427 230.513 60.114 230.482 59.378V58.872C230.482 58.8413 230.467 58.826 230.436 58.826C230.375 58.826 230.344 58.8413 230.344 58.872C228.412 61.264 225.913 62.46 222.846 62.46ZM253.579 42.956C250.482 42.956 248.933 43.876 248.933 45.716C248.933 46.5747 249.332 47.2647 250.129 47.786C250.957 48.2767 252.153 48.522 253.717 48.522H254.867C255.143 48.522 255.281 48.3993 255.281 48.154V43.462C255.281 43.1553 255.128 43.002 254.821 43.002C254.545 42.9713 254.131 42.956 253.579 42.956ZM247.415 51.236C245.79 50.776 244.456 49.9787 243.413 48.844C242.37 47.7093 241.849 46.4213 241.849 44.98C241.849 40.1653 245.652 37.758 253.257 37.758C255.956 37.758 258.225 37.8347 260.065 37.988C260.801 38.0187 261.414 38.3253 261.905 38.908C262.396 39.46 262.641 40.104 262.641 40.84V59.378C262.641 60.0833 262.38 60.6967 261.859 61.218C261.368 61.7393 260.77 62 260.065 62H257.857C257.152 62 256.538 61.7393 256.017 61.218C255.526 60.6967 255.281 60.0833 255.281 59.378V53.996C255.281 53.72 255.143 53.582 254.867 53.582H254.039C253.088 53.582 252.429 53.7047 252.061 53.95C251.693 54.1953 251.31 54.778 250.911 55.698L249.301 59.608C248.994 60.344 248.519 60.9267 247.875 61.356C247.231 61.7853 246.51 62 245.713 62H243.689C243.076 62 242.6 61.7393 242.263 61.218C241.926 60.6967 241.88 60.16 242.125 59.608L244.011 55.376C244.532 54.2413 245.038 53.3827 245.529 52.8C246.05 52.2173 246.679 51.742 247.415 51.374C247.476 51.374 247.507 51.3433 247.507 51.282C247.507 51.2513 247.476 51.236 247.415 51.236ZM282.276 62.23C281.601 62.322 281.003 62.1227 280.482 61.632C279.961 61.1413 279.7 60.5433 279.7 59.838V59.654C279.7 58.2433 280.559 57.2467 282.276 56.664C283.349 56.296 284.07 55.606 284.438 54.594C284.837 53.5513 285.036 51.834 285.036 49.442V40.702C285.036 39.9967 285.297 39.3833 285.818 38.862C286.339 38.3407 286.953 38.08 287.658 38.08H302.792C303.497 38.08 304.095 38.3407 304.586 38.862C305.107 39.3833 305.368 39.9967 305.368 40.702V59.378C305.368 60.0833 305.107 60.6967 304.586 61.218C304.095 61.7393 303.497 62 302.792 62H300.492C299.787 62 299.173 61.7393 298.652 61.218C298.131 60.6967 297.87 60.0833 297.87 59.378V43.876C297.87 43.6307 297.732 43.508 297.456 43.508H292.764C292.488 43.508 292.35 43.6307 292.35 43.876V50.316C292.35 54.2413 291.614 57.0933 290.142 58.872C288.701 60.62 286.079 61.7393 282.276 62.23ZM314.046 62C313.34 62 312.727 61.7393 312.206 61.218C311.684 60.6967 311.424 60.0833 311.424 59.378V40.702C311.424 39.9967 311.684 39.3833 312.206 38.862C312.727 38.3407 313.34 38.08 314.046 38.08H316.208C316.913 38.08 317.526 38.3407 318.048 38.862C318.569 39.3833 318.83 39.9967 318.83 40.702V51.834H318.876H318.922L324.58 40.426C325.346 38.862 326.604 38.08 328.352 38.08H330.606C331.311 38.08 331.924 38.3407 332.446 38.862C332.967 39.3833 333.228 39.9967 333.228 40.702V59.378C333.228 60.0833 332.967 60.6967 332.446 61.218C331.924 61.7393 331.311 62 330.606 62H328.444C327.738 62 327.125 61.7393 326.604 61.218C326.082 60.6967 325.822 60.0833 325.822 59.378V48.246H325.776H325.73L320.072 59.654C319.305 61.218 318.048 62 316.3 62H314.046ZM341.942 62C341.237 62 340.624 61.7393 340.102 61.218C339.581 60.6967 339.32 60.0833 339.32 59.378V40.702C339.32 39.9967 339.581 39.3833 340.102 38.862C340.624 38.3407 341.237 38.08 341.942 38.08H344.288C344.994 38.08 345.592 38.3407 346.082 38.862C346.604 39.3833 346.864 39.9967 346.864 40.702V46.59C346.864 46.8353 347.002 46.958 347.278 46.958H353.074C353.35 46.958 353.488 46.8353 353.488 46.59V40.702C353.488 39.9967 353.734 39.3833 354.224 38.862C354.746 38.3407 355.359 38.08 356.064 38.08H358.41C359.116 38.08 359.729 38.3407 360.25 38.862C360.772 39.3833 361.032 39.9967 361.032 40.702V59.378C361.032 60.0833 360.772 60.6967 360.25 61.218C359.729 61.7393 359.116 62 358.41 62H356.064C355.359 62 354.746 61.7393 354.224 61.218C353.734 60.6967 353.488 60.0833 353.488 59.378V52.57C353.488 52.294 353.35 52.156 353.074 52.156H347.278C347.002 52.156 346.864 52.294 346.864 52.57V59.378C346.864 60.0833 346.604 60.6967 346.082 61.218C345.592 61.7393 344.994 62 344.288 62H341.942ZM377.34 42.634C375.96 42.634 374.917 43.002 374.212 43.738C373.507 44.4433 373.062 45.67 372.878 47.418C372.878 47.6633 372.985 47.786 373.2 47.786H380.974C381.25 47.786 381.388 47.648 381.388 47.372C381.265 44.2133 379.916 42.634 377.34 42.634ZM378.49 62.46C374.319 62.46 371.099 61.402 368.83 59.286C366.591 57.17 365.472 54.088 365.472 50.04C365.472 46.0227 366.469 42.956 368.462 40.84C370.486 38.6933 373.399 37.62 377.202 37.62C384.501 37.62 388.211 41.6067 388.334 49.58C388.334 50.316 388.043 50.9447 387.46 51.466C386.908 51.9567 386.264 52.202 385.528 52.202H373.246C372.939 52.202 372.817 52.34 372.878 52.616C373.123 54.3027 373.767 55.514 374.81 56.25C375.883 56.9553 377.478 57.308 379.594 57.308C380.974 57.308 382.461 57.1087 384.056 56.71C384.7 56.5567 385.267 56.6793 385.758 57.078C386.279 57.4767 386.54 57.998 386.54 58.642V58.734C386.54 59.5007 386.295 60.206 385.804 60.85C385.344 61.4633 384.746 61.8313 384.01 61.954C382.231 62.2913 380.391 62.46 378.49 62.46ZM395.669 62C394.963 62 394.35 61.7393 393.829 61.218C393.307 60.6967 393.047 60.0833 393.047 59.378V40.702C393.047 39.9967 393.307 39.3833 393.829 38.862C394.35 38.3407 394.963 38.08 395.669 38.08H397.831C398.536 38.08 399.149 38.3407 399.671 38.862C400.192 39.3833 400.453 39.9967 400.453 40.702V51.834H400.499H400.545L406.203 40.426C406.969 38.862 408.227 38.08 409.975 38.08H412.229C412.934 38.08 413.547 38.3407 414.069 38.862C414.59 39.3833 414.851 39.9967 414.851 40.702V59.378C414.851 60.0833 414.59 60.6967 414.069 61.218C413.547 61.7393 412.934 62 412.229 62H410.067C409.361 62 408.748 61.7393 408.227 61.218C407.705 60.6967 407.445 60.0833 407.445 59.378V48.246H407.399H407.353L401.695 59.654C400.928 61.218 399.671 62 397.923 62H395.669ZM410.849 26.948H411.079C411.815 26.948 412.413 27.224 412.873 27.776C413.363 28.2973 413.501 28.88 413.287 29.524C412.704 31.364 411.569 32.836 409.883 33.94C408.227 35.0133 406.249 35.55 403.949 35.55C401.649 35.55 399.655 35.0133 397.969 33.94C396.313 32.836 395.193 31.364 394.611 29.524C394.396 28.88 394.519 28.2973 394.979 27.776C395.469 27.224 396.083 26.948 396.819 26.948H397.049C398.183 26.948 399.349 27.7607 400.545 29.386C401.373 30.49 402.507 31.042 403.949 31.042C405.39 31.042 406.525 30.49 407.353 29.386C408.549 27.7607 409.714 26.948 410.849 26.948ZM423.519 62C422.814 62 422.201 61.7393 421.679 61.218C421.189 60.6967 420.943 60.0833 420.943 59.378V40.702C420.943 39.9967 421.189 39.3833 421.679 38.862C422.201 38.3407 422.814 38.08 423.519 38.08H425.773C426.479 38.08 427.077 38.3407 427.567 38.862C428.089 39.3833 428.349 39.9967 428.349 40.702V47.096C428.349 47.1267 428.365 47.142 428.395 47.142L428.487 47.096L434.237 40.104C435.341 38.7547 436.752 38.08 438.469 38.08H441.781C442.272 38.08 442.625 38.31 442.839 38.77C443.085 39.23 443.039 39.6593 442.701 40.058L434.835 49.304C434.682 49.488 434.682 49.6873 434.835 49.902L442.793 59.976C443.131 60.4053 443.177 60.85 442.931 61.31C442.686 61.77 442.303 62 441.781 62H438.469C436.752 62 435.357 61.31 434.283 59.93L428.487 52.386C428.457 52.3553 428.426 52.34 428.395 52.34C428.365 52.34 428.349 52.3553 428.349 52.386V59.378C428.349 60.0833 428.089 60.6967 427.567 61.218C427.077 61.7393 426.479 62 425.773 62H423.519ZM459.032 51.052C455.29 51.052 453.42 52.202 453.42 54.502C453.42 55.33 453.665 55.9893 454.156 56.48C454.646 56.94 455.306 57.17 456.134 57.17C457.606 57.17 458.802 56.71 459.722 55.79C460.642 54.8393 461.102 53.582 461.102 52.018V51.466C461.102 51.19 460.964 51.052 460.688 51.052H459.032ZM453.88 62.46C451.764 62.46 450.016 61.7853 448.636 60.436C447.286 59.056 446.612 57.2773 446.612 55.1C446.612 49.5187 450.752 46.728 459.032 46.728H460.688C460.964 46.728 461.102 46.6053 461.102 46.36V46.13C461.102 44.9647 460.795 44.1213 460.182 43.6C459.599 43.0787 458.602 42.818 457.192 42.818C455.321 42.818 453.082 43.1093 450.476 43.692C449.832 43.8147 449.249 43.6767 448.728 43.278C448.237 42.8793 447.992 42.358 447.992 41.714V41.622C447.992 40.8553 448.222 40.1653 448.682 39.552C449.172 38.908 449.786 38.5247 450.522 38.402C453.22 37.8807 455.551 37.62 457.514 37.62C461.531 37.62 464.368 38.3407 466.024 39.782C467.71 41.2233 468.554 43.6153 468.554 46.958V59.378C468.554 60.0833 468.293 60.6967 467.772 61.218C467.25 61.7393 466.637 62 465.932 62H464.23C463.494 62 462.865 61.7547 462.344 61.264C461.822 60.7427 461.546 60.114 461.516 59.378V58.872C461.516 58.8413 461.5 58.826 461.47 58.826C461.408 58.826 461.378 58.8413 461.378 58.872C459.446 61.264 456.946 62.46 453.88 62.46ZM47.3778 118C46.6724 118 46.0591 117.739 45.5378 117.218C45.0164 116.697 44.7558 116.083 44.7558 115.378V87.042C44.7558 86.3367 45.0164 85.7233 45.5378 85.202C46.0591 84.6807 46.6724 84.42 47.3778 84.42H49.9998C50.7971 84.42 51.5178 84.6347 52.1618 85.064C52.8058 85.4933 53.2811 86.076 53.5878 86.812L60.7178 104.154C60.7178 104.185 60.7331 104.2 60.7638 104.2C60.7944 104.2 60.8098 104.185 60.8098 104.154L67.9398 86.812C68.2464 86.076 68.7218 85.4933 69.3658 85.064C70.0098 84.6347 70.7304 84.42 71.5278 84.42H74.3338C75.0391 84.42 75.6524 84.6807 76.1738 85.202C76.6951 85.7233 76.9558 86.3367 76.9558 87.042V115.378C76.9558 116.083 76.6951 116.697 76.1738 117.218C75.6524 117.739 75.0391 118 74.3338 118H72.1258C71.4204 118 70.8071 117.739 70.2858 117.218C69.7951 116.697 69.5498 116.083 69.5498 115.378V97.484C69.5498 97.4533 69.5344 97.438 69.5038 97.438C69.4424 97.438 69.4118 97.4533 69.4118 97.484L64.9958 107.926C64.6891 108.662 64.1984 109.245 63.5238 109.674C62.8798 110.103 62.1591 110.318 61.3618 110.318H60.1658C59.3684 110.318 58.6324 110.103 57.9578 109.674C57.3138 109.245 56.8384 108.662 56.5318 107.926L52.1158 97.484C52.1158 97.4533 52.0851 97.438 52.0238 97.438C51.9931 97.438 51.9778 97.4533 51.9778 97.484V115.378C51.9778 116.083 51.7171 116.697 51.1958 117.218C50.7051 117.739 50.1071 118 49.4018 118H47.3778ZM89.8616 117.632L82.0876 96.518C81.8423 95.9353 81.9036 95.3833 82.2716 94.862C82.6396 94.3407 83.1456 94.08 83.7896 94.08H86.6876C87.4236 94.08 88.0983 94.3253 88.7116 94.816C89.325 95.276 89.7236 95.874 89.9076 96.61L93.4036 110.916C93.4036 110.947 93.419 110.962 93.4496 110.962C93.4803 110.962 93.4956 110.947 93.4956 110.916L97.6816 96.564C97.8656 95.828 98.2643 95.23 98.8776 94.77C99.5216 94.31 100.242 94.08 101.04 94.08H103.57C104.183 94.08 104.674 94.3407 105.042 94.862C105.41 95.3833 105.486 95.9353 105.272 96.518L94.4156 125.682C94.1396 126.418 93.6796 127.001 93.0356 127.43C92.3916 127.89 91.6863 128.12 90.9196 128.12H88.3896C87.7456 128.12 87.255 127.859 86.9176 127.338C86.5803 126.847 86.5343 126.311 86.7796 125.728L89.8616 118.368C89.8923 118.245 89.9076 118.123 89.9076 118C89.9076 117.877 89.8923 117.755 89.8616 117.632ZM134.508 97.3L133.312 104.2C133.25 104.445 133.358 104.568 133.634 104.568H136.532C136.777 104.568 136.93 104.445 136.992 104.2L138.188 97.3C138.249 97.0547 138.142 96.932 137.866 96.932H134.968C134.722 96.932 134.569 97.0547 134.508 97.3ZM124.112 110.502C123.406 110.502 122.793 110.241 122.272 109.72C121.75 109.199 121.49 108.585 121.49 107.88V107.19C121.49 106.485 121.75 105.871 122.272 105.35C122.793 104.829 123.406 104.568 124.112 104.568H125.768C126.013 104.568 126.166 104.445 126.228 104.2L127.47 97.3C127.531 97.0547 127.424 96.932 127.148 96.932H126.504C125.798 96.932 125.185 96.6713 124.664 96.15C124.142 95.6287 123.882 95.0153 123.882 94.31V93.62C123.882 92.9147 124.142 92.3013 124.664 91.78C125.185 91.2587 125.798 90.998 126.504 90.998H128.206C128.451 90.998 128.604 90.8753 128.666 90.63L129.31 86.996C129.463 86.26 129.816 85.6467 130.368 85.156C130.92 84.6653 131.579 84.42 132.346 84.42H134.186C134.86 84.42 135.412 84.6807 135.842 85.202C136.302 85.7233 136.47 86.3213 136.348 86.996L135.704 90.63C135.642 90.8753 135.75 90.998 136.026 90.998H138.924C139.169 90.998 139.322 90.8753 139.384 90.63L140.028 86.996C140.181 86.26 140.534 85.6467 141.086 85.156C141.668 84.6653 142.343 84.42 143.11 84.42H144.95C145.624 84.42 146.176 84.6807 146.606 85.202C147.035 85.7233 147.188 86.3213 147.066 86.996L146.422 90.63C146.391 90.722 146.422 90.814 146.514 90.906C146.606 90.9673 146.698 90.998 146.79 90.998H147.342C148.047 90.998 148.66 91.2587 149.182 91.78C149.703 92.3013 149.964 92.9147 149.964 93.62V94.31C149.964 95.0153 149.703 95.6287 149.182 96.15C148.66 96.6713 148.047 96.932 147.342 96.932H145.732C145.486 96.932 145.333 97.0547 145.272 97.3L144.03 104.2C143.968 104.445 144.076 104.568 144.352 104.568H144.95C145.655 104.568 146.268 104.829 146.79 105.35C147.311 105.871 147.572 106.485 147.572 107.19V107.88C147.572 108.585 147.311 109.199 146.79 109.72C146.268 110.241 145.655 110.502 144.95 110.502H143.34C143.094 110.502 142.941 110.625 142.88 110.87L142.052 115.424C141.898 116.16 141.546 116.773 140.994 117.264C140.442 117.755 139.782 118 139.016 118H137.13C136.455 118 135.903 117.739 135.474 117.218C135.044 116.697 134.891 116.099 135.014 115.424L135.796 110.87C135.857 110.625 135.75 110.502 135.474 110.502H132.576C132.33 110.502 132.177 110.625 132.116 110.87L131.334 115.424C131.18 116.16 130.812 116.773 130.23 117.264C129.678 117.755 129.018 118 128.252 118H126.412C125.737 118 125.17 117.739 124.71 117.218C124.28 116.697 124.127 116.099 124.25 115.424L125.078 110.87C125.139 110.625 125.032 110.502 124.756 110.502H124.112ZM158.389 97.898C157.96 98.2353 157.5 98.2813 157.009 98.036C156.549 97.7907 156.319 97.392 156.319 96.84V93.482C156.319 91.734 157.025 90.354 158.435 89.342L163.081 85.938C164.461 84.926 166.041 84.42 167.819 84.42H170.717C171.423 84.42 172.036 84.6807 172.557 85.202C173.079 85.7233 173.339 86.3367 173.339 87.042V115.378C173.339 116.083 173.079 116.697 172.557 117.218C172.036 117.739 171.423 118 170.717 118H167.819C167.114 118 166.501 117.739 165.979 117.218C165.458 116.697 165.197 116.083 165.197 115.378V93.022H165.151H165.105L158.389 97.898ZM193.367 108.8C190.055 108.187 187.679 107.236 186.237 105.948C184.827 104.66 184.121 102.958 184.121 100.842C184.121 98.5727 184.965 96.8093 186.651 95.552C188.369 94.264 190.945 93.62 194.379 93.62C196.403 93.62 198.473 93.7887 200.589 94.126C201.325 94.2487 201.923 94.6013 202.383 95.184C202.874 95.7667 203.119 96.4413 203.119 97.208V97.438C203.119 98.082 202.859 98.6033 202.337 99.002C201.847 99.4007 201.279 99.5387 200.635 99.416C198.642 99.0173 196.802 98.818 195.115 98.818C193.858 98.818 192.969 98.9713 192.447 99.278C191.957 99.5847 191.711 100.045 191.711 100.658C191.711 101.823 192.631 102.59 194.471 102.958C197.967 103.541 200.405 104.461 201.785 105.718C203.196 106.975 203.901 108.8 203.901 111.192C203.901 113.492 203.043 115.286 201.325 116.574C199.608 117.831 197.109 118.46 193.827 118.46C191.435 118.46 189.166 118.23 187.019 117.77C186.283 117.617 185.67 117.233 185.179 116.62C184.719 115.976 184.489 115.255 184.489 114.458V114.09C184.489 113.446 184.75 112.955 185.271 112.618C185.793 112.25 186.375 112.143 187.019 112.296C189.013 112.817 190.975 113.078 192.907 113.078C195.177 113.078 196.311 112.419 196.311 111.1C196.311 110.487 196.097 110.011 195.667 109.674C195.269 109.337 194.502 109.045 193.367 108.8ZM210.766 100.198C210.06 100.198 209.447 99.9527 208.926 99.462C208.404 98.9407 208.144 98.3273 208.144 97.622C208.144 96.9167 208.404 96.3033 208.926 95.782C209.447 95.2607 210.06 95 210.766 95H212.606C212.851 95 212.974 94.862 212.974 94.586V88.882C212.974 88.1767 213.234 87.5633 213.756 87.042C214.277 86.5207 214.89 86.26 215.596 86.26H217.804C218.509 86.26 219.122 86.5207 219.644 87.042C220.165 87.5633 220.426 88.1767 220.426 88.882V94.586C220.426 94.862 220.564 95 220.84 95H225.348C226.053 95 226.651 95.2607 227.142 95.782C227.663 96.3033 227.924 96.9167 227.924 97.622C227.924 98.3273 227.663 98.9407 227.142 99.462C226.651 99.9527 226.053 100.198 225.348 100.198H220.84C220.564 100.198 220.426 100.336 220.426 100.612V108.478C220.426 110.41 220.594 111.637 220.932 112.158C221.3 112.679 222.097 112.94 223.324 112.94C223.968 112.94 224.474 112.909 224.842 112.848C225.516 112.756 226.114 112.909 226.636 113.308C227.157 113.707 227.418 114.228 227.418 114.872V115.24C227.418 116.007 227.172 116.681 226.682 117.264C226.191 117.847 225.562 118.184 224.796 118.276C223.845 118.399 222.741 118.46 221.484 118.46C218.356 118.46 216.148 117.801 214.86 116.482C213.602 115.133 212.974 112.725 212.974 109.26V100.612C212.974 100.336 212.851 100.198 212.606 100.198H210.766ZM269.238 101.21C269.238 94.0033 266.662 90.4 261.51 90.4C256.358 90.4 253.782 94.0033 253.782 101.21C253.782 108.417 256.358 112.02 261.51 112.02C266.662 112.02 269.238 108.417 269.238 101.21ZM273.01 113.906C270.188 116.942 266.355 118.46 261.51 118.46C256.664 118.46 252.831 116.942 250.01 113.906C247.188 110.839 245.778 106.607 245.778 101.21C245.778 95.8127 247.188 91.596 250.01 88.56C252.831 85.4933 256.664 83.96 261.51 83.96C266.355 83.96 270.188 85.4933 273.01 88.56C275.831 91.596 277.242 95.8127 277.242 101.21C277.242 106.607 275.831 110.839 273.01 113.906ZM288.976 103.188V108.892C288.976 109.904 289.436 110.839 290.356 111.698C291.307 112.526 292.38 112.94 293.576 112.94C294.987 112.94 296.106 112.373 296.934 111.238C297.762 110.073 298.176 108.34 298.176 106.04C298.176 101.44 296.643 99.14 293.576 99.14C292.38 99.14 291.307 99.5693 290.356 100.428C289.436 101.256 288.976 102.176 288.976 103.188ZM284.33 128.12C283.625 128.12 283.011 127.859 282.49 127.338C281.969 126.817 281.708 126.203 281.708 125.498V96.702C281.708 95.9967 281.969 95.3833 282.49 94.862C283.011 94.3407 283.625 94.08 284.33 94.08H286.17C286.906 94.08 287.535 94.3407 288.056 94.862C288.577 95.3527 288.853 95.966 288.884 96.702V97.07C288.884 97.1007 288.899 97.116 288.93 97.116L289.022 97.024C290.985 94.7547 293.346 93.62 296.106 93.62C298.958 93.62 301.227 94.6933 302.914 96.84C304.631 98.9867 305.49 102.053 305.49 106.04C305.49 109.904 304.601 112.94 302.822 115.148C301.074 117.356 298.835 118.46 296.106 118.46C293.561 118.46 291.291 117.525 289.298 115.654C289.267 115.623 289.237 115.608 289.206 115.608C289.175 115.608 289.16 115.623 289.16 115.654V125.498C289.16 126.203 288.899 126.817 288.378 127.338C287.857 127.859 287.243 128.12 286.538 128.12H284.33ZM311.66 100.198C310.955 100.198 310.342 99.9527 309.82 99.462C309.299 98.9407 309.038 98.3273 309.038 97.622C309.038 96.9167 309.299 96.3033 309.82 95.782C310.342 95.2607 310.955 95 311.66 95H313.5C313.746 95 313.868 94.862 313.868 94.586V88.882C313.868 88.1767 314.129 87.5633 314.65 87.042C315.172 86.5207 315.785 86.26 316.49 86.26H318.698C319.404 86.26 320.017 86.5207 320.538 87.042C321.06 87.5633 321.32 88.1767 321.32 88.882V94.586C321.32 94.862 321.458 95 321.734 95H326.242C326.948 95 327.546 95.2607 328.036 95.782C328.558 96.3033 328.818 96.9167 328.818 97.622C328.818 98.3273 328.558 98.9407 328.036 99.462C327.546 99.9527 326.948 100.198 326.242 100.198H321.734C321.458 100.198 321.32 100.336 321.32 100.612V108.478C321.32 110.41 321.489 111.637 321.826 112.158C322.194 112.679 322.992 112.94 324.218 112.94C324.862 112.94 325.368 112.909 325.736 112.848C326.411 112.756 327.009 112.909 327.53 113.308C328.052 113.707 328.312 114.228 328.312 114.872V115.24C328.312 116.007 328.067 116.681 327.576 117.264C327.086 117.847 326.457 118.184 325.69 118.276C324.74 118.399 323.636 118.46 322.378 118.46C319.25 118.46 317.042 117.801 315.754 116.482C314.497 115.133 313.868 112.725 313.868 109.26V100.612C313.868 100.336 313.746 100.198 313.5 100.198H311.66ZM338.667 118C337.962 118 337.349 117.739 336.827 117.218C336.306 116.697 336.045 116.083 336.045 115.378V96.702C336.045 95.9967 336.306 95.3833 336.827 94.862C337.349 94.3407 337.962 94.08 338.667 94.08H341.243C341.949 94.08 342.562 94.3407 343.083 94.862C343.605 95.3833 343.865 95.9967 343.865 96.702V115.378C343.865 116.083 343.605 116.697 343.083 117.218C342.562 117.739 341.949 118 341.243 118H338.667ZM338.667 89.48C337.962 89.48 337.349 89.2193 336.827 88.698C336.306 88.1767 336.045 87.5633 336.045 86.858V86.122C336.045 85.4167 336.306 84.8033 336.827 84.282C337.349 83.7607 337.962 83.5 338.667 83.5H341.243C341.949 83.5 342.562 83.7607 343.083 84.282C343.605 84.8033 343.865 85.4167 343.865 86.122V86.858C343.865 87.5633 343.605 88.1767 343.083 88.698C342.562 89.2193 341.949 89.48 341.243 89.48H338.667ZM354.149 118C353.444 118 352.831 117.739 352.309 117.218C351.788 116.697 351.527 116.083 351.527 115.378V87.042C351.527 86.3367 351.788 85.7233 352.309 85.202C352.831 84.6807 353.444 84.42 354.149 84.42H356.771C357.569 84.42 358.289 84.6347 358.933 85.064C359.577 85.4933 360.053 86.076 360.359 86.812L367.489 104.154C367.489 104.185 367.505 104.2 367.535 104.2C367.566 104.2 367.581 104.185 367.581 104.154L374.711 86.812C375.018 86.076 375.493 85.4933 376.137 85.064C376.781 84.6347 377.502 84.42 378.299 84.42H381.105C381.811 84.42 382.424 84.6807 382.945 85.202C383.467 85.7233 383.727 86.3367 383.727 87.042V115.378C383.727 116.083 383.467 116.697 382.945 117.218C382.424 117.739 381.811 118 381.105 118H378.897C378.192 118 377.579 117.739 377.057 117.218C376.567 116.697 376.321 116.083 376.321 115.378V97.484C376.321 97.4533 376.306 97.438 376.275 97.438C376.214 97.438 376.183 97.4533 376.183 97.484L371.767 107.926C371.461 108.662 370.97 109.245 370.295 109.674C369.651 110.103 368.931 110.318 368.133 110.318H366.937C366.14 110.318 365.404 110.103 364.729 109.674C364.085 109.245 363.61 108.662 363.303 107.926L358.887 97.484C358.887 97.4533 358.857 97.438 358.795 97.438C358.765 97.438 358.749 97.4533 358.749 97.484V115.378C358.749 116.083 358.489 116.697 357.967 117.218C357.477 117.739 356.879 118 356.173 118H354.149ZM400.497 98.634C399.117 98.634 398.074 99.002 397.369 99.738C396.664 100.443 396.219 101.67 396.035 103.418C396.035 103.663 396.142 103.786 396.357 103.786H404.131C404.407 103.786 404.545 103.648 404.545 103.372C404.422 100.213 403.073 98.634 400.497 98.634ZM401.647 118.46C397.476 118.46 394.256 117.402 391.987 115.286C389.748 113.17 388.629 110.088 388.629 106.04C388.629 102.023 389.626 98.956 391.619 96.84C393.643 94.6933 396.556 93.62 400.359 93.62C407.658 93.62 411.368 97.6067 411.491 105.58C411.491 106.316 411.2 106.945 410.617 107.466C410.065 107.957 409.421 108.202 408.685 108.202H396.403C396.096 108.202 395.974 108.34 396.035 108.616C396.28 110.303 396.924 111.514 397.967 112.25C399.04 112.955 400.635 113.308 402.751 113.308C404.131 113.308 405.618 113.109 407.213 112.71C407.857 112.557 408.424 112.679 408.915 113.078C409.436 113.477 409.697 113.998 409.697 114.642V114.734C409.697 115.501 409.452 116.206 408.961 116.85C408.501 117.463 407.903 117.831 407.167 117.954C405.388 118.291 403.548 118.46 401.647 118.46ZM427.474 107.052C423.733 107.052 421.862 108.202 421.862 110.502C421.862 111.33 422.107 111.989 422.598 112.48C423.089 112.94 423.748 113.17 424.576 113.17C426.048 113.17 427.244 112.71 428.164 111.79C429.084 110.839 429.544 109.582 429.544 108.018V107.466C429.544 107.19 429.406 107.052 429.13 107.052H427.474ZM422.322 118.46C420.206 118.46 418.458 117.785 417.078 116.436C415.729 115.056 415.054 113.277 415.054 111.1C415.054 105.519 419.194 102.728 427.474 102.728H429.13C429.406 102.728 429.544 102.605 429.544 102.36V102.13C429.544 100.965 429.237 100.121 428.624 99.6C428.041 99.0787 427.045 98.818 425.634 98.818C423.763 98.818 421.525 99.1093 418.918 99.692C418.274 99.8147 417.691 99.6767 417.17 99.278C416.679 98.8793 416.434 98.358 416.434 97.714V97.622C416.434 96.8553 416.664 96.1653 417.124 95.552C417.615 94.908 418.228 94.5247 418.964 94.402C421.663 93.8807 423.993 93.62 425.956 93.62C429.973 93.62 432.81 94.3407 434.466 95.782C436.153 97.2233 436.996 99.6153 436.996 102.958V115.378C436.996 116.083 436.735 116.697 436.214 117.218C435.693 117.739 435.079 118 434.374 118H432.672C431.936 118 431.307 117.755 430.786 117.264C430.265 116.743 429.989 116.114 429.958 115.378V114.872C429.958 114.841 429.943 114.826 429.912 114.826C429.851 114.826 429.82 114.841 429.82 114.872C427.888 117.264 425.389 118.46 422.322 118.46ZM446.615 118C445.909 118 445.296 117.739 444.775 117.218C444.253 116.697 443.993 116.083 443.993 115.378V86.122C443.993 85.4167 444.253 84.8033 444.775 84.282C445.296 83.7607 445.909 83.5 446.615 83.5H449.191C449.896 83.5 450.509 83.7607 451.031 84.282C451.552 84.8033 451.813 85.4167 451.813 86.122V115.378C451.813 116.083 451.552 116.697 451.031 117.218C450.509 117.739 449.896 118 449.191 118H446.615ZM475.483 118C474.778 118 474.165 117.739 473.643 117.218C473.122 116.697 472.861 116.083 472.861 115.378V87.042C472.861 86.3367 473.122 85.7233 473.643 85.202C474.165 84.6807 474.778 84.42 475.483 84.42H478.105C478.811 84.42 479.409 84.6807 479.899 85.202C480.421 85.7233 480.681 86.3367 480.681 87.042V98.772C480.681 98.8027 480.697 98.818 480.727 98.818C480.789 98.818 480.819 98.8027 480.819 98.772L488.639 86.628C489.559 85.156 490.893 84.42 492.641 84.42H496.505C497.057 84.42 497.456 84.6653 497.701 85.156C497.947 85.6467 497.916 86.122 497.609 86.582L488.271 100.198C488.118 100.413 488.118 100.627 488.271 100.842L498.115 115.838C498.422 116.298 498.437 116.773 498.161 117.264C497.916 117.755 497.517 118 496.965 118H493.101C491.353 118 490.035 117.264 489.145 115.792L480.819 102.268C480.819 102.237 480.789 102.222 480.727 102.222C480.697 102.222 480.681 102.237 480.681 102.268V115.378C480.681 116.083 480.421 116.697 479.899 117.218C479.409 117.739 478.811 118 478.105 118H475.483ZM506.315 118C505.609 118 504.996 117.739 504.475 117.218C503.984 116.697 503.739 116.083 503.739 115.378V87.042C503.739 86.3367 503.984 85.7233 504.475 85.202C504.996 84.6807 505.609 84.42 506.315 84.42H509.719C510.424 84.42 511.022 84.6807 511.513 85.202C512.034 85.7233 512.295 86.3367 512.295 87.042V115.378C512.295 116.083 512.034 116.697 511.513 117.218C511.022 117.739 510.424 118 509.719 118H506.315ZM527.62 90.768V111.652C527.62 111.928 527.758 112.097 528.034 112.158C528.648 112.281 529.384 112.342 530.242 112.342C533.34 112.342 535.624 111.437 537.096 109.628C538.599 107.819 539.35 104.859 539.35 100.75C539.35 97.07 538.599 94.3713 537.096 92.654C535.594 90.9367 533.309 90.078 530.242 90.078C529.384 90.078 528.648 90.1393 528.034 90.262C527.758 90.3233 527.62 90.492 527.62 90.768ZM522.56 118.092C521.824 118.031 521.211 117.724 520.72 117.172C520.23 116.589 519.984 115.915 519.984 115.148V87.272C519.984 86.5053 520.23 85.846 520.72 85.294C521.211 84.7113 521.824 84.3893 522.56 84.328C524.952 84.0827 527.314 83.96 529.644 83.96C535.134 83.96 539.366 85.4167 542.34 88.33C545.315 91.2433 546.802 95.3833 546.802 100.75C546.802 106.577 545.315 110.993 542.34 113.998C539.366 116.973 535.134 118.46 529.644 118.46C527.314 118.46 524.952 118.337 522.56 118.092ZM561.542 104.568C557.678 103.341 554.887 101.823 553.17 100.014C551.453 98.174 550.594 95.9353 550.594 93.298C550.594 90.4153 551.591 88.146 553.584 86.49C555.608 84.8033 558.491 83.96 562.232 83.96C565.053 83.96 567.614 84.282 569.914 84.926C570.65 85.1407 571.233 85.5853 571.662 86.26C572.122 86.904 572.352 87.6247 572.352 88.422V89.756C572.352 90.3693 572.091 90.8447 571.57 91.182C571.049 91.5193 570.497 91.5807 569.914 91.366C567.307 90.446 564.9 89.986 562.692 89.986C559.871 89.986 558.46 91.09 558.46 93.298C558.46 95.1687 559.687 96.5027 562.14 97.3C566.372 98.588 569.301 100.091 570.926 101.808C572.582 103.525 573.41 105.779 573.41 108.57C573.41 115.163 569.255 118.46 560.944 118.46C558.307 118.46 555.915 118.046 553.768 117.218C553.032 116.942 552.449 116.467 552.02 115.792C551.621 115.087 551.422 114.32 551.422 113.492V112.02C551.422 111.468 551.667 111.054 552.158 110.778C552.649 110.471 553.139 110.441 553.63 110.686C555.869 111.79 558.153 112.342 560.484 112.342C562.109 112.342 563.336 112.035 564.164 111.422C565.023 110.778 565.452 109.873 565.452 108.708C565.452 107.696 565.161 106.868 564.578 106.224C563.995 105.58 562.983 105.028 561.542 104.568Z" fill="#D07CC6"/>
<defs>
<filter id="filter0_f_603_476" x="25" y="77" width="567" height="184" filterUnits="userSpaceOnUse" color-interpolation-filters="sRGB">
<feFlood flood-opacity="0" result="BackgroundImageFix"/>
<feBlend mode="normal" in="SourceGraphic" in2="BackgroundImageFix" result="shape"/>
<feGaussianBlur stdDeviation="30" result="effect1_foregroundBlur_603_476"/>
</filter>
<filter id="filter1_f_603_476" x="25" y="132" width="567" height="53" filterUnits="userSpaceOnUse" color-interpolation-filters="sRGB">
<feFlood flood-opacity="0" result="BackgroundImageFix"/>
<feBlend mode="normal" in="SourceGraphic" in2="BackgroundImageFix" result="shape"/>
<feGaussianBlur stdDeviation="10" result="effect1_foregroundBlur_603_476"/>
</filter>
<linearGradient id="paint0_linear_603_476" x1="308" y1="146" x2="305" y2="3.99999" gradientUnits="userSpaceOnUse">
<stop stop-color="#FFF6EF"/>
<stop offset="1" stop-color="white" stop-opacity="0"/>
</linearGradient>
<linearGradient id="paint1_linear_603_476" x1="309" y1="153" x2="309" y2="39" gradientUnits="userSpaceOnUse">
<stop stop-color="#EDD3D0" stop-opacity="0.71"/>
<stop offset="1" stop-color="white" stop-opacity="0"/>
</linearGradient>
</defs>
</svg>
