<svg width="50" height="50" viewBox="0 0 50 50" fill="none" xmlns="http://www.w3.org/2000/svg">
<circle cx="25" cy="25" r="25" fill="#2786F5"/>
<circle cx="25" cy="25" r="25" fill="url(#paint0_linear_603_448)"/>
<path d="M37.2578 31.3941C37.2578 31.2904 37.154 31.2904 37.154 31.1866C36.7389 30.3564 35.8049 29.3186 34.5595 28.177C33.9368 27.6581 33.6255 27.243 33.4179 27.0354C33.1066 26.6203 33.1066 26.309 33.2104 25.8939C33.3142 25.5826 33.7293 25.0636 34.4557 24.1296C34.8708 23.6107 35.0784 23.2994 35.3897 22.9881C36.9464 20.9125 37.6729 19.5634 37.4653 18.9407L37.3616 18.8369C37.2578 18.7332 37.154 18.6294 36.9464 18.6294C36.7389 18.5256 36.4275 18.5256 36.1162 18.6294H32.1726C32.0688 18.6294 32.0688 18.6294 31.8613 18.6294C31.7575 18.6294 31.6537 18.6294 31.6537 18.6294H31.5499H31.4462L31.3424 18.7332C31.2386 18.8369 31.2386 18.8369 31.2386 18.9407C30.8235 20.0823 30.3046 21.0163 29.7857 22.0541C29.4744 22.573 29.163 23.0919 28.8517 23.507C28.5404 23.9221 28.3328 24.2334 28.1252 24.441C27.9177 24.6485 27.7101 24.7523 27.6063 24.9599C27.5026 25.0636 27.295 25.1674 27.295 25.0637C27.1912 25.0637 27.0874 25.0636 27.0874 24.9599C26.9837 24.8561 26.8799 24.7523 26.7761 24.6485C26.6723 24.5448 26.6723 24.3372 26.5685 24.1296C26.5685 23.9221 26.5685 23.7145 26.5685 23.6107C26.5685 23.507 26.5685 23.1956 26.5685 22.9881C26.5685 22.6767 26.5685 22.4692 26.5685 22.3654C26.5685 22.0541 26.5685 21.639 26.5685 21.2238C26.5685 20.8087 26.5685 20.4974 26.5685 20.2898C26.5685 20.0823 26.5685 19.7709 26.5685 19.5634C26.5685 19.252 26.5685 19.0445 26.5685 18.9407C26.5685 18.8369 26.4648 18.6294 26.4648 18.5256C26.361 18.4218 26.2572 18.318 26.1534 18.2143C26.0497 18.1105 25.8421 18.1105 25.7383 18.0067C25.2194 17.9029 24.5968 17.7991 23.8703 17.7991C22.2099 17.7991 21.0683 17.9029 20.6532 18.1105C20.4456 18.2143 20.2381 18.318 20.1343 18.5256C19.9267 18.7332 19.9267 18.8369 20.0305 18.8369C20.5494 18.9407 20.9645 19.1483 21.1721 19.4596L21.2759 19.6672C21.3796 19.7709 21.3796 19.9785 21.4834 20.2898C21.5872 20.6012 21.5872 20.9125 21.5872 21.3276C21.5872 21.9503 21.5872 22.573 21.5872 22.9881C21.5872 23.507 21.4834 23.8183 21.4834 24.1296C21.4834 24.441 21.3796 24.6485 21.2759 24.7523C21.1721 24.9599 21.1721 25.0637 21.0683 25.0637C21.0683 25.0637 21.0683 25.1674 20.9645 25.1674C20.8607 25.1674 20.757 25.2712 20.5494 25.2712C20.4456 25.2712 20.2381 25.1674 20.1343 25.0637C19.9267 24.9599 19.7192 24.7523 19.6154 24.5448C19.4078 24.3372 19.2003 24.0259 18.9927 23.6107C18.7852 23.1956 18.4738 22.7805 18.2663 22.1578L18.0587 21.7427C17.9549 21.5352 17.7474 21.1201 17.5398 20.6012C17.3323 20.0823 17.1247 19.6672 16.9171 19.1483C16.8134 18.9407 16.7096 18.8369 16.6058 18.7332H16.502C16.502 18.7332 16.3982 18.6294 16.2945 18.6294C16.1907 18.6294 16.0869 18.5256 15.9831 18.5256H12.2471C11.832 18.5256 11.6244 18.6294 11.5207 18.7332L11.4169 18.8369C11.4169 18.8369 11.4169 18.9407 11.4169 19.0445C11.4169 19.1483 11.4169 19.252 11.5207 19.4596C12.0395 20.7049 12.6622 21.9503 13.2849 23.1956C13.9076 24.3372 14.5302 25.375 14.9454 26.1014C15.4642 26.8279 15.8794 27.5543 16.3982 28.177C16.9171 28.7997 17.2285 29.2148 17.3323 29.4224C17.5398 29.6299 17.6436 29.7337 17.7474 29.8375L18.0587 30.1488C18.2663 30.3564 18.5776 30.6677 18.9927 30.979C19.4078 31.2904 19.9267 31.6017 20.4456 31.913C20.9645 32.2244 21.5872 32.4319 22.2099 32.6395C22.9363 32.8471 23.559 32.9508 24.1816 32.8471H25.7383C26.0497 32.8471 26.2572 32.7433 26.4648 32.5357L26.5685 32.4319C26.5685 32.3282 26.6723 32.3282 26.6723 32.2244C26.6723 32.1206 26.6723 32.0168 26.6723 31.8093C26.6723 31.3942 26.6723 31.0828 26.7761 30.7715C26.8799 30.4601 26.8799 30.2526 26.9837 30.045C27.0875 29.8375 27.1912 29.7337 27.295 29.6299C27.3988 29.5261 27.5026 29.4224 27.5026 29.4224H27.6063C27.8139 29.3186 28.1252 29.4224 28.3328 29.6299C28.6441 29.8375 28.9555 30.1488 29.163 30.4601C29.3706 30.7715 29.6819 31.0828 30.097 31.4979C30.5122 31.913 30.8235 32.2244 31.031 32.3282L31.3424 32.5357C31.5499 32.6395 31.7575 32.7433 32.0688 32.8471C32.3802 32.9508 32.5877 32.9508 32.7953 32.9508L36.3238 32.8471C36.6351 32.8471 36.9464 32.7433 37.154 32.6395C37.3615 32.5357 37.4653 32.4319 37.4653 32.2244C37.4653 32.1206 37.4653 31.913 37.4653 31.8093C37.2577 31.6017 37.2578 31.4979 37.2578 31.3941Z" fill="white"/>
<defs>
<linearGradient id="paint0_linear_603_448" x1="12" y1="47" x2="39" y2="4" gradientUnits="userSpaceOnUse">
<stop stop-color="#003ACE"/>
<stop offset="1" stop-color="#2786F5"/>
</linearGradient>
</defs>
</svg>
