<svg width="50" height="50" viewBox="0 0 50 50" fill="none" xmlns="http://www.w3.org/2000/svg">
<circle cx="25" cy="25" r="25" fill="#48C95F"/>
<circle cx="25" cy="25" r="25" fill="url(#paint0_linear_603_454)"/>
<path d="M34.9085 15.0781C32.439 12.6172 29.1463 11.25 25.6707 11.25C18.4451 11.25 12.5915 17.0833 12.5915 24.2839C12.5915 26.5625 13.2317 28.8411 14.3293 30.7552L12.5 37.5L19.4512 35.6771C21.372 36.6797 23.4756 37.2266 25.6707 37.2266C32.8963 37.2266 38.75 31.3932 38.75 24.1927C38.6585 20.8203 37.378 17.5391 34.9085 15.0781ZM31.9817 28.9323C31.7073 29.6615 30.4268 30.3906 29.7866 30.4818C29.2378 30.5729 28.5061 30.5729 27.7744 30.3906C27.3171 30.2083 26.6768 30.026 25.9451 29.6615C22.6524 28.2943 20.5488 25.013 20.3659 24.7396C20.1829 24.5573 18.9939 23.0078 18.9939 21.3672C18.9939 19.7266 19.8171 18.9974 20.0915 18.6328C20.3659 18.2682 20.7317 18.2682 21.0061 18.2682C21.189 18.2682 21.4634 18.2682 21.6463 18.2682C21.8293 18.2682 22.1037 18.1771 22.378 18.8151C22.6524 19.4531 23.2927 21.0938 23.3841 21.1849C23.4756 21.3672 23.4756 21.5495 23.3841 21.7318C23.2927 21.9141 23.2012 22.0964 23.0183 22.2786C22.8354 22.4609 22.6524 22.7344 22.561 22.8255C22.378 23.0078 22.1951 23.1901 22.378 23.4635C22.561 23.8281 23.2012 24.8307 24.2073 25.7422C25.4878 26.8359 26.4939 27.2005 26.8598 27.3828C27.2256 27.5651 27.4085 27.474 27.5915 27.2917C27.7744 27.1094 28.4146 26.3802 28.5976 26.0156C28.7805 25.651 29.0549 25.7422 29.3293 25.8333C29.6037 25.9245 31.25 26.7448 31.5244 26.9271C31.8902 27.1094 32.0732 27.2005 32.1646 27.2917C32.2561 27.5651 32.2561 28.2031 31.9817 28.9323Z" fill="white"/>
<defs>
<linearGradient id="paint0_linear_603_454" x1="31.5" y1="5" x2="14.5" y2="50" gradientUnits="userSpaceOnUse">
<stop stop-color="#2BCB00"/>
<stop offset="1" stop-color="#007803"/>
</linearGradient>
</defs>
</svg>
