<svg width="246" height="135" viewBox="0 0 246 135" fill="none" xmlns="http://www.w3.org/2000/svg">
<g filter="url(#filter0_d_603_426)">
<path d="M8 0H238V90C238 106.569 224.569 120 208 120H38C21.4315 120 8 106.569 8 90V0Z" fill="#FFF6EF"/>
<path d="M8 0H238V90C238 106.569 224.569 120 208 120H38C21.4315 120 8 106.569 8 90V0Z" fill="url(#paint0_linear_603_426)"/>
</g>
<path d="M108.265 72.2664C106.797 70.5195 106.413 63.2874 106.797 59.2347C106.826 58.9284 106.794 58.6194 106.704 58.3254C106.613 58.0314 106.465 57.7582 106.269 57.5213C106.073 57.2844 105.832 57.0886 105.56 56.9449C105.288 56.8013 104.99 56.7127 104.684 56.6842H104.404C103.819 56.6858 103.256 56.9048 102.823 57.2987C102.39 57.6925 102.12 58.2331 102.063 58.8154C102.063 58.9377 100.998 71.0436 104.631 75.3235C104.848 75.5758 105.116 75.7794 105.417 75.9209C105.718 76.0624 106.045 76.1386 106.378 76.1445C106.936 76.148 107.476 75.9494 107.898 75.5855C108.37 75.184 108.665 74.613 108.719 73.9958C108.764 73.6918 108.747 73.3818 108.669 73.0845C108.591 72.7873 108.454 72.5089 108.265 72.2664Z" fill="#D07CC6"/>
<path d="M104.055 55.0422C104.387 55.138 104.736 55.1624 105.078 55.1136C105.42 55.0648 105.748 54.944 106.041 54.7591C106.333 54.5742 106.583 54.3294 106.773 54.041C106.964 53.7525 107.091 53.4269 107.147 53.0857C107.237 52.74 107.255 52.3795 107.201 52.0264C107.147 51.6733 107.021 51.335 106.831 51.0323C106.641 50.7296 106.392 50.469 106.098 50.2663C105.803 50.0637 105.471 49.9233 105.12 49.8539C104.789 49.7609 104.442 49.7394 104.102 49.7908C103.761 49.8421 103.436 49.9652 103.147 50.1519C102.858 50.3385 102.612 50.5844 102.425 50.8734C102.238 51.1623 102.115 51.4877 102.063 51.8279C101.97 52.1701 101.949 52.5278 102 52.8788C102.051 53.2297 102.174 53.5664 102.36 53.8679C102.547 54.1694 102.794 54.4292 103.085 54.6312C103.377 54.8332 103.707 54.9731 104.055 55.0422Z" fill="#D07CC6"/>
<path d="M159.134 52.2297C158.97 50.6088 158.489 49.036 157.719 47.6004C156.92 46.1009 155.769 44.818 154.365 43.8621C152.96 42.843 151.319 42.1995 149.596 41.993C147.889 41.8329 146.168 42.0907 144.582 42.7441C141.886 43.939 139.497 45.731 137.595 47.9848C136.499 49.2098 135.501 50.5181 134.608 51.8978L134.101 51.1641C133.246 50.1321 132.311 49.1684 131.306 48.2817C129.182 46.2815 126.614 44.8146 123.812 44.0019C122.065 43.4885 120.202 43.5231 118.474 44.1009C116.747 44.6787 115.239 45.7721 114.152 47.2336C112.33 49.7793 111.363 52.8377 111.392 55.968C111.448 61.5957 113.201 67.0753 116.423 71.6899C119.359 76.1102 123.185 79.8702 127.655 82.7302C128.141 83.0248 128.72 83.1265 129.277 83.0153C129.834 82.9041 130.329 82.5881 130.665 82.1297C131 81.6712 131.152 81.1037 131.09 80.5389C131.027 79.9742 130.755 79.4534 130.328 79.0793C126.718 76.1788 123.638 72.6738 121.227 68.7202C118.895 64.9824 117.61 60.6868 117.506 56.2825C117.451 54.4195 117.982 52.5862 119.026 51.0418C119.39 50.4769 119.926 50.0445 120.556 49.8085C121.185 49.5725 121.873 49.5456 122.519 49.7316C124.515 50.2778 126.384 51.2095 128.022 52.4742C129.859 53.775 131.556 55.2619 133.088 56.9113C133.25 57.1579 133.457 57.3713 133.699 57.5402C133.918 57.6839 134.164 57.783 134.421 57.8318C134.678 57.8805 134.943 57.8781 135.199 57.8245C135.455 57.771 135.699 57.6674 135.915 57.5197C136.131 57.372 136.316 57.1831 136.459 56.9637L136.617 56.7192C137.911 54.7497 139.41 52.9227 141.089 51.2689C142.601 49.7023 144.429 48.4756 146.452 47.6703C147.225 47.3393 148.074 47.2246 148.908 47.3384C149.742 47.4523 150.529 47.7904 151.186 48.3167C151.902 48.8437 152.492 49.5227 152.915 50.3049C153.338 51.0871 153.583 51.9532 153.631 52.8411C153.784 55.0305 153.524 57.2292 152.863 59.322C152.198 61.6072 151.345 63.8334 150.312 65.9776C148.228 70.351 145.624 74.4568 142.556 78.2058C142.174 78.6886 141.992 79.2991 142.046 79.9121C142.1 80.5251 142.386 81.0943 142.846 81.503C143.306 81.9117 143.905 82.129 144.52 82.1104C145.135 82.0917 145.72 81.8385 146.155 81.4026C149.79 77.4869 152.843 73.0686 155.221 68.2835C156.461 65.8758 157.467 63.3545 158.226 60.7545C159.059 57.9946 159.367 55.1031 159.134 52.2297Z" fill="#D07CC6"/>
<path d="M197.897 60.8069C197.801 60.491 197.684 60.1817 197.548 59.881C197.406 59.5471 197.237 59.2257 197.041 58.9202C196.833 58.5902 196.586 58.2854 196.308 58.0119C196.042 57.724 195.736 57.4768 195.399 57.2782C194.253 56.5479 192.932 56.1378 191.574 56.0903C189.309 55.9967 187.047 56.3224 184.9 57.0511C184.398 57.2017 183.975 57.5457 183.726 58.0077C183.478 58.4696 183.422 59.0115 183.573 59.5142C183.723 60.0169 184.067 60.4391 184.529 60.6881C184.991 60.9371 185.533 60.9924 186.036 60.8418H186.158C187.807 60.3294 189.535 60.1164 191.259 60.2129C191.879 60.2351 192.482 60.422 193.006 60.7545C193.417 61.0823 193.696 61.5475 193.792 62.0646C193.88 62.4042 193.95 62.7482 194.002 63.0953C192.047 62.8962 190.074 62.949 188.132 63.2525C186.681 63.4789 185.314 64.0811 184.167 64.9994C183.822 65.2718 183.522 65.5959 183.276 65.9602C182.997 66.312 182.779 66.7075 182.629 67.1306C182.332 67.923 182.19 68.7651 182.21 69.6112C182.21 70.0304 182.315 70.4497 182.385 70.8514C182.494 71.2897 182.659 71.7123 182.874 72.1092C183.281 72.8989 183.882 73.5722 184.621 74.0657C185.87 74.8088 187.276 75.2458 188.726 75.3409C190.543 75.4412 192.366 75.3357 194.159 75.0265C194.486 75.3366 194.901 75.538 195.347 75.603C195.937 75.6879 196.538 75.5351 197.016 75.1782C197.494 74.8212 197.811 74.2892 197.897 73.6989C198.213 71.6338 198.4 69.5509 198.456 67.4625C198.616 65.2284 198.428 62.983 197.897 60.8069ZM189.163 70.9912C188.43 70.9696 187.713 70.7783 187.067 70.4322C186.882 70.3329 186.73 70.1833 186.628 70.0007C186.526 69.8182 186.478 69.6103 186.49 69.4015C186.468 69.1786 186.501 68.9535 186.586 68.7463C186.671 68.5391 186.806 68.3562 186.979 68.2137C187.56 67.8063 188.232 67.5483 188.936 67.4625C190.678 67.226 192.445 67.2613 194.176 67.5673C194.176 68.5456 194.037 69.5413 193.914 70.537C192.364 70.8993 190.772 71.052 189.18 70.9912H189.163Z" fill="#D07CC6"/>
<path d="M83.3368 64.4928C83.2749 63.9809 83.1577 63.4772 82.9874 62.9905C82.6772 62.117 82.2417 61.2932 81.6947 60.5448C80.6153 59.037 79.1141 57.8822 77.3799 57.2258C75.7055 56.6115 73.9055 56.4195 72.1392 56.6668C71.4224 56.7447 70.7146 56.8909 70.0255 57.1035C69.8282 56.8537 69.5827 56.6462 69.3036 56.4931C69.0246 56.3401 68.7176 56.2447 68.4009 56.2126C68.0932 56.1813 67.7824 56.2112 67.4864 56.3007C67.1904 56.3902 66.915 56.5375 66.6763 56.7341C66.4375 56.9306 66.24 57.1725 66.0953 57.4458C65.9506 57.7191 65.8614 58.0184 65.833 58.3263C65.3677 66.225 65.4669 74.1469 66.13 82.0315C66.1697 82.6124 66.4276 83.1568 66.8521 83.5553C67.2766 83.9539 67.8361 84.1771 68.4184 84.1802H68.6455C69.2689 84.1304 69.847 83.8351 70.2526 83.3591C70.4586 83.1206 70.6143 82.8429 70.7103 82.5427C70.8064 82.2425 70.8408 81.9261 70.8116 81.6122C70.8116 81.0008 70.5845 78.363 70.4273 74.9566C71.2655 75.09 72.1118 75.1659 72.9603 75.1837H73.1874C74.7692 75.2002 76.3418 74.9401 77.8341 74.4151C79.6076 73.7475 81.1159 72.5212 82.1314 70.9213C83.0857 69.3449 83.5536 67.5219 83.4765 65.6807C83.4512 65.2825 83.4045 64.886 83.3368 64.4928ZM70.305 62.0297C72.0009 61.3451 73.8782 61.2527 75.633 61.7677C76.4825 62.0799 77.2208 62.6361 77.7554 63.3664C78.2899 64.0967 78.5969 64.9687 78.6376 65.8728C78.7782 66.7852 78.6016 67.7181 78.1375 68.516C77.6734 69.3139 76.9497 69.9286 76.0872 70.2575C74.2302 70.9477 72.2264 71.1463 70.2701 70.834C70.2002 67.9342 70.1827 64.8422 70.305 62.0297Z" fill="#D07CC6"/>
<path d="M205.723 75.6379C205.41 75.6372 205.101 75.568 204.817 75.4353C204.534 75.3025 204.282 75.1093 204.081 74.8693C200.937 71.1834 202.142 56.3523 202.806 50.1334C202.869 49.5381 203.165 48.992 203.63 48.6152C203.861 48.4287 204.125 48.2893 204.41 48.2051C204.694 48.1209 204.992 48.0935 205.287 48.1245C205.581 48.1555 205.867 48.2442 206.128 48.3856C206.388 48.5271 206.618 48.7184 206.805 48.9487C206.991 49.1791 207.131 49.4439 207.215 49.7281C207.299 50.0123 207.326 50.3103 207.296 50.6051C206.212 60.6322 206.317 70.4147 207.505 71.952C207.77 72.2843 207.936 72.6842 207.985 73.1063C208.034 73.5284 207.963 73.9558 207.781 74.3397C207.599 74.7237 207.313 75.0489 206.956 75.2784C206.598 75.5079 206.183 75.6324 205.758 75.6379H205.723Z" fill="#D07CC6"/>
<path d="M137.28 89.4383C136.825 89.4364 136.38 89.2963 136.005 89.0365L132.214 86.4686C131.714 86.1304 131.369 85.6072 131.254 85.0143C131.139 84.4213 131.265 83.8071 131.603 83.3067C131.941 82.8064 132.464 82.4608 133.057 82.3462C133.65 82.2315 134.265 82.3571 134.765 82.6953L137.071 84.25L138.818 82.7128C139.269 82.3095 139.861 82.1 140.466 82.1294C141.07 82.1588 141.639 82.4248 142.049 82.87C142.253 83.09 142.41 83.3484 142.513 83.63C142.615 83.9116 142.66 84.2108 142.646 84.5101C142.631 84.8095 142.557 85.1028 142.428 85.3731C142.298 85.6434 142.116 85.8852 141.892 86.0843L138.818 88.8443C138.395 89.2235 137.848 89.4348 137.28 89.4383Z" fill="#FF5F4E"/>
<path d="M178.751 63.6368C178.645 62.4883 178.313 61.3721 177.773 60.3527C177.192 59.1982 176.28 58.2433 175.153 57.6101C174.074 57.0347 172.881 56.7065 171.659 56.6493C170.608 56.5937 169.553 56.6523 168.515 56.824C167.407 57.03 166.339 57.4134 165.353 57.9595C163.329 59.1457 161.84 61.0665 161.195 63.3224C160.893 64.3675 160.735 65.4488 160.724 66.5366C160.724 67.0607 160.724 67.5848 160.811 68.1088C160.887 68.7014 161.016 69.286 161.195 69.8557C161.926 72.0763 163.458 73.9447 165.493 75.0964C167.383 76.1708 169.545 76.6735 171.716 76.5432C173.886 76.413 175.972 75.6555 177.721 74.3627C178.101 74.0469 178.35 73.6013 178.419 73.1122C178.489 72.6232 178.375 72.1257 178.098 71.7164C177.822 71.307 177.403 71.0151 176.923 70.8972C176.443 70.7793 175.937 70.844 175.502 71.0785C174.366 71.7881 173.057 72.173 171.717 72.1915C170.378 72.21 169.059 71.8613 167.903 71.1834C167.013 70.6656 166.305 69.8844 165.877 68.9473L176.638 68.5456C177.088 68.5287 177.519 68.3584 177.859 68.0628C178.199 67.7673 178.427 67.3644 178.507 66.921C178.726 65.8409 178.808 64.7375 178.751 63.6368ZM167.799 61.8899C168.953 61.2804 170.25 60.9909 171.554 61.0514C172.052 61.015 172.551 61.1143 172.997 61.3389C173.443 61.5634 173.82 61.9048 174.087 62.3267C174.43 62.9689 174.626 63.6786 174.664 64.4055H165.929C166.225 63.3809 166.891 62.503 167.799 61.9423V61.8899Z" fill="#D07CC6"/>
<path d="M99.4954 73.4368C99.4019 72.9404 99.1167 72.5008 98.7015 72.2131C98.2863 71.9254 97.7745 71.8128 97.2769 71.8996C96.5234 72.0682 95.7419 72.0682 94.9884 71.8996C94.7561 71.8219 94.5428 71.6962 94.3622 71.5306C94.1816 71.3651 94.0379 71.1635 93.9403 70.9388C93.3592 69.181 93.07 67.3398 93.0843 65.4885C93.0843 64.0386 93.0843 62.4489 93.0843 60.8243C93.9578 60.8243 94.8312 60.8243 95.6872 60.8243H95.6697C96.2257 60.8081 96.7524 60.5717 97.1341 60.1671C97.5158 59.7625 97.7211 59.2229 97.7048 58.6669C97.6886 58.111 97.4522 57.5842 97.0476 57.2026C96.643 56.8209 96.1034 56.6156 95.5474 56.6318L92.997 56.7716C92.997 55.0247 93.1018 53.2778 93.1717 51.6532V51.496C93.1657 50.8974 92.9323 50.3234 92.5188 49.8905C92.1052 49.4576 91.5425 49.1982 90.9448 49.1649C90.3471 49.1315 89.759 49.3268 89.2999 49.711C88.8408 50.0953 88.5451 50.6397 88.4726 51.234C88.2979 53.4001 88.1756 55.409 88.0883 57.2607L86.3414 57.4878C85.8955 57.569 85.4987 57.8203 85.2347 58.1887C84.9707 58.557 84.8601 59.0135 84.9264 59.4618C84.944 59.6931 85.0074 59.9185 85.113 60.125C85.2186 60.3315 85.3643 60.5149 85.5415 60.6645C85.7188 60.8141 85.924 60.9269 86.1453 60.9964C86.3666 61.0658 86.5996 61.0904 86.8305 61.0689H87.966C87.966 62.8158 87.966 64.4753 88.1057 65.9427C88.1057 67.0083 88.2804 68.1612 88.4726 69.4365C88.6451 70.8473 89.1027 72.2084 89.8177 73.4368C90.2681 74.1761 90.8621 74.8176 91.5645 75.3235C92.5996 76.0113 93.8156 76.3761 95.0583 76.3716C96.1583 76.3564 97.2445 76.1249 98.2551 75.6903C98.7038 75.5344 99.0789 75.2179 99.3079 74.8017C99.537 74.3856 99.6037 73.8993 99.4954 73.4368Z" fill="#D07CC6"/>
<path d="M60.243 50.0286C59.3605 48.1482 57.9915 46.5379 56.2775 45.3644C54.5262 44.2658 52.4926 43.7012 50.4255 43.7398H50.2508C48.1882 43.7153 46.1522 44.2078 44.3289 45.1723C42.528 46.2492 41.0732 47.8192 40.1364 49.6967C38.6382 53.0071 37.9153 56.6158 38.0226 60.2479C37.8559 63.9223 38.6126 67.5798 40.2237 70.8864C41.1731 72.6986 42.5829 74.229 44.3114 75.3235C46.0442 76.4063 48.0337 77.0092 50.0761 77.0704H50.8622C52.6951 77.0937 54.5021 76.6359 56.1029 75.7427C57.8977 74.643 59.3497 73.0639 60.2954 71.1834C61.8755 67.8731 62.625 64.2275 62.479 60.5623C62.4828 56.9329 61.7209 53.3435 60.243 50.0286ZM57.0986 60.6497C57.2567 63.4871 56.8163 66.3261 55.8059 68.9823C55.3897 70.0622 54.6747 71.0013 53.7446 71.69C52.6833 72.2856 51.4566 72.5187 50.2508 72.3538C49.0359 72.3443 47.8494 71.9851 46.8332 71.319C45.8171 70.653 45.0144 69.7083 44.521 68.598C43.9791 67.3579 43.6201 66.0457 43.4554 64.7024C43.2831 63.2359 43.2188 61.7587 43.2633 60.2828C43.1107 57.4347 43.594 54.5883 44.6782 51.9502C45.1361 50.8733 45.9018 49.9556 46.8793 49.3124C47.9098 48.7353 49.0697 48.4287 50.2508 48.4215C51.4291 48.412 52.5807 48.7728 53.5429 49.4529C54.5052 50.1331 55.2295 51.0983 55.6137 52.2122C56.6872 54.8917 57.1928 57.7647 57.0986 60.6497Z" fill="#D07CC6"/>
<path d="M177.092 44.2115C177.092 43.6001 177.092 42.9887 177.092 42.3598C177.092 41.7309 177.092 41.102 177.092 40.6129C177.114 40.4569 177.103 40.298 177.061 40.1463C177.018 39.9946 176.944 39.8535 176.844 39.7319C176.744 39.6104 176.619 39.511 176.478 39.4401C176.338 39.3692 176.184 39.3284 176.026 39.3202C175.878 39.3006 175.728 39.3103 175.584 39.3489C175.44 39.3874 175.304 39.4541 175.186 39.5449C175.067 39.6358 174.968 39.7491 174.893 39.8784C174.819 40.0077 174.77 40.1505 174.751 40.2985C174.653 40.9811 174.606 41.6702 174.611 42.3598C174.577 43.0348 174.577 43.7112 174.611 44.3862C174.714 45.759 174.983 47.1142 175.415 48.4215C175.45 48.5522 175.511 48.6747 175.594 48.7819C175.677 48.8891 175.78 48.9789 175.898 49.0463C176.016 49.1136 176.145 49.1571 176.28 49.1743C176.414 49.1915 176.551 49.182 176.681 49.1464C176.812 49.1109 176.935 49.0499 177.042 48.967C177.149 48.8841 177.239 48.7809 177.306 48.6633C177.374 48.5457 177.417 48.416 177.434 48.2816C177.451 48.1472 177.442 48.0107 177.406 47.88C177.212 46.6665 177.107 45.4404 177.092 44.2115Z" fill="#FF5F4E"/>
<path d="M176.026 38.6389C176.177 38.6773 176.334 38.6832 176.488 38.6562C176.641 38.6293 176.787 38.5701 176.916 38.4826C177.045 38.3951 177.153 38.2813 177.235 38.1486C177.316 38.016 177.369 37.8675 177.389 37.7131C177.44 37.5595 177.46 37.3972 177.447 37.2358C177.434 37.0744 177.388 36.9173 177.313 36.7739C177.238 36.6304 177.135 36.5035 177.01 36.4007C176.885 36.298 176.741 36.2215 176.585 36.1758C176.434 36.1375 176.277 36.1316 176.124 36.1586C175.97 36.1855 175.824 36.2447 175.696 36.3322C175.567 36.4197 175.458 36.5335 175.377 36.6662C175.295 36.7988 175.243 36.9473 175.223 37.1017C175.171 37.2553 175.152 37.4176 175.165 37.579C175.178 37.7404 175.223 37.8975 175.298 38.0409C175.373 38.1844 175.476 38.3113 175.601 38.414C175.726 38.5168 175.871 38.5933 176.026 38.6389Z" fill="#FF5F4E"/>
<path d="M185.861 35.0054C185.563 35.0363 185.289 35.1841 185.099 35.4165C184.909 35.6489 184.819 35.947 184.848 36.2457C184.848 36.2457 184.988 37.7306 185.128 39.7395C184.695 39.6634 184.257 39.6225 183.817 39.6172C182.989 39.6046 182.166 39.7468 181.389 40.0364C180.521 40.3788 179.786 40.9913 179.293 41.7833C178.83 42.5759 178.611 43.4874 178.664 44.4037V45.0325C178.711 45.2812 178.776 45.5264 178.856 45.7662C179.024 46.2044 179.253 46.6162 179.538 46.989C180.086 47.7222 180.84 48.2756 181.704 48.5787C182.544 48.8737 183.444 48.9577 184.324 48.8233C184.691 48.7649 185.054 48.6773 185.407 48.5612C185.502 48.6874 185.623 48.7917 185.761 48.867C185.9 48.9424 186.053 48.987 186.211 48.998C186.496 49.0033 186.772 48.8995 186.983 48.708C187.194 48.5164 187.324 48.2515 187.346 47.9673C187.546 43.9836 187.464 39.9908 187.102 36.0186C187.071 35.7201 186.923 35.446 186.69 35.2561C186.458 35.0663 186.16 34.9761 185.861 35.0054ZM182.56 46.3427C182.119 46.1919 181.733 45.914 181.45 45.544C181.167 45.1741 181 44.7286 180.97 44.2639C180.895 43.797 180.981 43.3186 181.212 42.9064C181.444 42.4941 181.808 42.1722 182.245 41.993C183.191 41.6075 184.223 41.4867 185.232 41.6436C185.232 43.111 185.337 44.7006 185.232 46.1505C184.388 46.5117 183.447 46.5794 182.56 46.3427Z" fill="#FF5F4E"/>
<path d="M169.912 43.4953C171.275 42.0803 172.672 40.3509 172.742 40.2635C172.835 40.1462 172.903 40.0115 172.943 39.8674C172.982 39.7233 172.993 39.5726 172.973 39.4244C172.954 39.2762 172.905 39.1334 172.829 39.0045C172.753 38.8756 172.652 38.7632 172.533 38.6739C172.3 38.4854 172.003 38.3962 171.705 38.4257C171.408 38.4551 171.134 38.6008 170.943 38.8311C169.864 40.2042 168.697 41.5054 167.449 42.7266C167.449 40.84 167.589 38.6215 167.816 36.2457C167.841 35.948 167.749 35.6523 167.56 35.4209C167.371 35.1896 167.099 35.0406 166.803 35.0054C166.499 34.9762 166.197 35.0681 165.961 35.2613C165.726 35.4544 165.576 35.733 165.545 36.0361C165.213 39.8618 164.619 47.2161 166.191 49.0504C166.296 49.1801 166.43 49.2838 166.581 49.3535C166.733 49.4232 166.898 49.4569 167.065 49.4521C167.327 49.45 167.58 49.3574 167.781 49.1901C167.896 49.0957 167.991 48.9794 168.06 48.848C168.129 48.7165 168.171 48.5726 168.184 48.4246C168.197 48.2766 168.181 48.1275 168.136 47.986C168.09 47.8445 168.017 47.7134 167.921 47.6004C167.595 46.809 167.44 45.9578 167.467 45.1024H167.659C167.659 45.1024 169.965 45.1024 171.275 48.5962C171.358 48.8064 171.503 48.9868 171.689 49.1144C171.876 49.242 172.097 49.311 172.323 49.3124C172.467 49.3085 172.609 49.279 172.742 49.225C173.022 49.1158 173.247 48.9 173.369 48.6249C173.49 48.3499 173.497 48.038 173.388 47.7577C172.794 45.9575 171.556 44.4399 169.912 43.4953Z" fill="#FF5F4E"/>
<path d="M197.181 44.4561C196.674 43.9755 196.076 43.6012 195.422 43.3552C194.768 43.1092 194.071 42.9965 193.373 43.0236C192.73 43.0228 192.094 42.892 191.504 42.6393C191.364 42.517 191.364 42.4297 191.399 42.3249C191.434 42.2201 191.958 41.6261 192.761 41.5388C193.487 41.3933 194.237 41.4293 194.945 41.6436C195.178 41.8268 195.473 41.912 195.767 41.8808C196.062 41.8497 196.332 41.7047 196.521 41.4768C196.71 41.249 196.803 40.9562 196.779 40.661C196.756 40.3659 196.618 40.0916 196.395 39.8967C196.08 39.5997 195.05 38.9534 192.499 39.2678C191.788 39.3064 191.103 39.5473 190.525 39.9619C189.946 40.3766 189.498 40.9479 189.233 41.6086C189.079 42.0854 189.069 42.5971 189.206 43.0791C189.343 43.561 189.62 43.9916 190.001 44.3163C190.929 44.9728 192.045 45.31 193.181 45.2771C194.019 45.2771 195.137 45.4693 195.434 45.8361C195.456 45.8733 195.467 45.9155 195.467 45.9584C195.467 46.0013 195.456 46.0435 195.434 46.0807C195.329 46.3078 194.893 46.727 193.844 46.8318C192.827 46.9474 191.8 46.72 190.927 46.1855C190.818 46.0573 190.683 45.9548 190.529 45.8855C190.376 45.8161 190.21 45.7817 190.041 45.7846C189.873 45.7875 189.708 45.8278 189.557 45.9024C189.407 45.977 189.274 46.0841 189.17 46.216C189.066 46.348 188.992 46.5014 188.955 46.6652C188.917 46.8291 188.916 46.9993 188.952 47.1635C188.988 47.3277 189.06 47.4818 189.163 47.6148C189.266 47.7478 189.397 47.8562 189.547 47.9324C190.664 48.6936 191.986 49.0958 193.338 49.0853H194.089C194.81 49.0794 195.515 48.8781 196.131 48.5028C196.746 48.1274 197.248 47.5922 197.583 46.9541C197.746 46.54 197.795 46.0895 197.724 45.65C197.654 45.2105 197.466 44.7981 197.181 44.4561Z" fill="#FF5F4E"/>
<defs>
<filter id="filter0_d_603_426" x="0" y="-1" width="246" height="136" filterUnits="userSpaceOnUse" color-interpolation-filters="sRGB">
<feFlood flood-opacity="0" result="BackgroundImageFix"/>
<feColorMatrix in="SourceAlpha" type="matrix" values="0 0 0 0 0 0 0 0 0 0 0 0 0 0 0 0 0 0 127 0" result="hardAlpha"/>
<feOffset dy="7"/>
<feGaussianBlur stdDeviation="4"/>
<feColorMatrix type="matrix" values="0 0 0 0 0.380392 0 0 0 0 0.482353 0 0 0 0 0.639216 0 0 0 0.21 0"/>
<feBlend mode="normal" in2="BackgroundImageFix" result="effect1_dropShadow_603_426"/>
<feBlend mode="normal" in="SourceGraphic" in2="effect1_dropShadow_603_426" result="shape"/>
</filter>
<linearGradient id="paint0_linear_603_426" x1="123" y1="0" x2="123" y2="120" gradientUnits="userSpaceOnUse">
<stop stop-color="white"/>
<stop offset="1" stop-color="white" stop-opacity="0"/>
</linearGradient>
</defs>
</svg>
